<?xml version="1.0" encoding="UTF-8"?>
<svg width="362px" height="259px" viewBox="0 0 362 259" version="1.1" xmlns="http://www.w3.org/2000/svg" xmlns:xlink="http://www.w3.org/1999/xlink">
    <title>F35004C7-4327-451B-AE40-2C31BFC07910</title>
    <defs>
        <path d="M234.830311,229.70647 C194.422454,254.85512 152.093671,262.836649 95.3662932,252.890594 C38.6389152,242.94454 6.14181163,178.672763 2.35679147,150.457473 C-1.42822868,122.242183 -11.037895,53.8460026 74.6188852,21.5956501 C160.275665,-10.6547025 229.780713,-1.23863347 269.432408,14.1448606 C309.084103,29.5283547 317.574282,100.140894 309.084103,133.696481 C300.593924,167.252069 275.238168,204.557819 234.830311,229.70647 Z" id="path-1"></path>
        <path d="M73.2048864,22.5301536 L73.323078,22.7099413 L65.2104792,41.3069659 L65.1444134,41.4381567 C65.0931992,41.5260423 65.033086,41.6027687 64.9640846,41.6679527 C64.8711796,41.7557179 64.7491446,41.8070324 64.6012611,41.8240476 L64.4855531,41.8304115 L63.5214642,41.8304115 L63.403922,41.6491601 L65.8845777,36.2541088 L59.9157333,22.7103838 L60.0337308,22.5301536 L61.1622736,22.5304332 L61.2722425,22.5380251 C61.3910156,22.5546282 61.4920816,22.5978192 61.5722287,22.6683363 C61.6347401,22.7233367 61.6868377,22.7828168 61.7282914,22.8470284 L61.7824603,22.946926 L66.5345359,33.8956014 L66.6163417,34.1153858 L66.6959975,34.3695477 L66.7912757,34.1085213 L66.8765126,33.8898659 L71.5750655,22.9357932 L71.6341826,22.8300785 C71.6825679,22.7577067 71.7416099,22.6962727 71.8108898,22.6463793 C71.8911225,22.5885981 71.9791926,22.5521117 72.0735344,22.5374799 L72.1699086,22.5301536 L73.2048864,22.5301536 Z M98.6539975,34.1935911 C98.8513959,34.1935911 99.0392543,34.232617 99.2164222,34.3105573 C99.3915038,34.3875798 99.5442148,34.4908185 99.6737802,34.6200157 C99.8033455,34.749213 99.9068784,34.9014901 99.9841202,35.0760743 C100.062283,35.2527389 100.10142,35.4400637 100.10142,35.6369013 C100.10142,35.8433052 100.062239,36.0334433 99.9835336,36.2061031 C99.9062897,36.3755571 99.8029276,36.5250063 99.6737802,36.6537868 C99.5434756,36.7837212 99.3897327,36.8850592 99.2134719,36.9574309 C99.0370894,37.0298527 98.8502777,37.066074 98.6539975,37.066074 C98.2515665,37.066074 97.9091361,36.927927 97.6342148,36.6537868 C97.3592936,36.3796466 97.2207531,36.038189 97.2207531,35.6369013 C97.2207531,35.4411787 97.2570775,35.2548978 97.3297057,35.0790163 C97.4022836,34.9032563 97.5039103,34.7499501 97.6342148,34.6200157 C97.7633623,34.4912352 97.9132373,34.3881668 98.083174,34.3111423 C98.2563257,34.2326605 98.4470055,34.1935911 98.6539975,34.1935911 Z M80.9459531,22.3039536 C81.9742541,22.3039536 82.8966188,22.4792573 83.7121071,22.8305089 C84.5284213,23.1821163 85.2177499,23.6813642 85.7787787,24.3276081 C86.3386587,24.9725286 86.7652738,25.7488291 87.0587227,26.6554568 C87.3513174,27.5594452 87.4973753,28.5693955 87.4973753,29.6850138 C87.4973753,30.8006832 87.351304,31.8083384 87.058661,32.7076921 C86.7652017,33.6095548 86.3385978,34.3834316 85.7787787,35.028282 C85.2176135,35.6746831 84.5280748,36.1716705 83.7115152,36.5185656 C82.8961892,36.8649366 81.9740375,37.037799 80.9459531,37.037799 C79.9178686,37.037799 78.995717,36.8649366 78.1803909,36.5185656 C77.3639832,36.1717351 76.672217,35.6748854 76.1063979,35.0286943 C75.5416828,34.383764 75.1125865,33.6097387 74.8190673,32.7076921 C74.5264243,31.8083384 74.3803531,30.8006832 74.3803531,29.6850138 C74.3803531,28.5693955 74.5264109,27.5594452 74.8190056,26.6554568 C75.112514,25.7486453 75.5416215,24.9721961 76.1063979,24.3271958 C76.67208,23.6811612 77.3636365,23.1820509 78.179799,22.8305089 C78.9952873,22.4792573 79.917652,22.3039536 80.9459531,22.3039536 Z M52.3068419,16.5924036 L52.4261306,16.6722535 L60.635064,36.676816 L60.5157753,36.8540115 L59.3867187,36.853697 L59.2821644,36.846017 C59.1688715,36.8294036 59.0696347,36.7867506 58.9871293,36.7181914 C58.9194742,36.6619723 58.862068,36.5948233 58.8148762,36.5169602 L58.751745,36.3921571 L56.4171086,30.661667 L46.7362642,30.661667 L44.4127662,36.3990325 L44.3596595,36.5088632 C44.3137731,36.5851233 44.2531274,36.6531559 44.1784249,36.7127482 C44.0899621,36.7833174 43.9880184,36.8274934 43.874689,36.8451708 L43.7576419,36.8540115 L42.6517753,36.8540115 L42.5324866,36.676816 L50.7414199,16.6722535 L50.8607086,16.5924036 L52.3068419,16.5924036 Z M80.9459531,23.4927888 C80.1047382,23.4927888 79.3698568,23.6388763 78.7413086,23.9310513 C78.1127605,24.2232263 77.5881827,24.6402825 77.1675753,25.18222 C76.7469679,25.7241575 76.4303308,26.3768388 76.2176642,27.1402638 C76.0049975,27.9036888 75.8986642,28.7519388 75.8986642,29.6850138 C75.8986642,30.6275138 76.0049975,31.47812 76.2176642,32.2368325 C76.4303308,32.995545 76.7469679,33.6435138 77.1675753,34.1807388 C77.5881827,34.7179638 78.1127605,35.1303075 78.7413086,35.41777 C79.3698568,35.7052325 80.1047382,35.8489638 80.9459531,35.8489638 C81.7871679,35.8489638 82.5220494,35.7052325 83.1505975,35.41777 C83.7791456,35.1303075 84.3037234,34.7179638 84.7243308,34.1807388 C85.1449382,33.6435138 85.4592123,32.995545 85.6671531,32.2368325 C85.8750938,31.47812 85.9790642,30.6275138 85.9790642,29.6850138 C85.9790642,28.7519388 85.8750938,27.9036888 85.6671531,27.1402638 C85.4592123,26.3768388 85.1449382,25.7241575 84.7243308,25.18222 C84.3037234,24.6402825 83.7791456,24.2232263 83.1505975,23.9310513 C82.5220494,23.6388763 81.7871679,23.4927888 80.9459531,23.4927888 Z M99.3628864,16.5924036 L99.4917753,16.7209263 L99.4901962,25.2248357 L99.485457,25.626499 L99.4775572,26.0124759 C99.4680933,26.3899572 99.4562638,26.7745026 99.4420689,27.1661124 L99.4041463,27.9791653 L99.3355941,29.0917719 L99.2931018,29.8474016 L99.1643975,29.969049 L98.2428419,29.969049 L98.1141461,29.8475581 L98.0291596,28.4068654 C98.000725,27.9721064 97.9793945,27.5585253 97.9651705,27.1661124 L97.9296822,26.0124759 L97.9217829,25.6265298 L97.9154642,24.8075763 L97.9154642,16.7209263 L98.0443531,16.5924036 L99.3628864,16.5924036 Z M51.5837753,18.1629513 C51.5176123,18.3891513 51.4514494,18.60357 51.3852864,18.8062075 L51.2529605,19.1894909 L51.2529605,19.1894909 L51.1867975,19.3646388 L47.0894197,29.4588138 L56.0781308,29.4588138 L51.9145901,19.1832075 C51.8704814,19.0669659 51.8263728,18.9412992 51.7822642,18.8062075 C51.7161012,18.60357 51.6499382,18.3891513 51.5837753,18.1629513 Z" id="path-2"></path>
    </defs>
    <g id="Desktop" stroke="none" stroke-width="1" fill="none" fill-rule="evenodd">
        <g id="22---Authorisation---Authorisation-failed" transform="translate(-331.000000, -99.000000)">
            <g id="_Illustrations/Juice-4/Onboarding---1" transform="translate(331.000000, 99.000000)">
                <g id="Filled" transform="translate(24.400000, 0.409091)">
                    <use fill="#DC143D" xlink:href="#path-1"></use>
                    <use fill-opacity="0.85" fill="#FFFFFF" xlink:href="#path-1"></use>
                </g>
                <line x1="0.830900889" y1="226.274932" x2="360.349443" y2="226.274932" id="Border" stroke="#001F4F" stroke-linecap="round" stroke-linejoin="round"></line>
                <g id="Nature/Leaf/1" transform="translate(119.922093, 0.409091)">
                    <path d="M107.289091,2.94498178 L107.21922,3.09476837 L107.792044,0.988572963 L108.957262,1.55873969 C114.763244,4.49202521 140.730149,18.688054 151.819025,42.8673226 L152.204163,43.7248518 C164.4585,71.5866469 157.182227,73.1634544 140.336471,78.7153879 C123.490715,84.2650768 108.939835,76.8905559 105.876667,84.9766042 C102.850855,92.9651507 134.569924,93.8477422 146.784398,87.8688481 L148.467016,87.005025 C158.928132,81.7041456 162.194152,82.5909404 162.971344,87.1072019 L163.050243,87.6442706 C163.691875,92.8045273 163.308562,116.351145 129.615384,119.973874 L126.236673,120.325065 C95.685274,123.389793 92.3321695,120.684086 88.2659525,128.597496 C84.0545135,136.793528 105.111709,137.353547 115.06617,131.89813 L116.364107,131.197688 C125.875384,126.145549 135.158273,123.011991 139.1882,125.828824 C143.399639,128.77145 139.571512,138.047118 120.809193,148.158887 C105.066127,156.64327 96.3327791,158.007954 93.9306197,158.227459 L93.2423502,158.269533 C81.8050444,158.960623 73.2769239,156.50118 67.6579887,150.891204 L67.1834902,150.402634 L67.5168444,149.170195 L67.9520525,148.981751 C70.8717432,147.654948 70.7266739,147.717762 67.5168444,149.170195 L67.4177245,149.217264 C54.5049222,154.735274 35.2321431,150.6082 18.8921091,141.898566 L18.2129964,141.533026 C-4.36585944,129.260872 -0.0265593545,106.702316 6.18013023,99.398282 C12.3868198,92.0942479 20.6618257,95.3734329 24.3618491,96.8440772 C28.0618725,98.3147216 35.9414536,113.223722 47.6554274,110.787223 C55.4647432,109.16289 53.8390713,104.02496 42.7784116,95.3734329 L41.763934,94.2336894 C38.1299586,90.0675224 26.0290434,75.4373168 27.0059309,66.4118005 L27.1972616,64.8688715 C28.6099471,54.7456777 33.1381263,44.667316 40.7918523,47.0681325 C48.8314177,49.5921468 49.2130637,64.8596833 67.9720496,66.6699256 C86.7343687,68.4812902 91.0957995,63.0471964 78.7714658,56.3202327 C66.4421323,49.5921468 41.5551444,49.6134701 52.2745649,33.9475232 C62.9973186,18.2826986 83.6695343,20.6114356 95.9238719,13.3670995 C102.894271,9.24468352 105.775206,5.80492214 106.963735,3.60551726 L107.21922,3.09476837 C107.17291,5.61147154 107.339594,5.1368835 107.719271,1.67100424 L107.593697,2.13839045 C107.545324,2.29553759 107.485427,2.46773003 107.411298,2.65433768 L107.289091,2.94498178 Z" id="Filled" fill="#FFFFFF"></path>
                    <path d="M67.1834902,150.402634 C72.7919776,156.358069 81.4782643,158.980369 93.2423502,158.269533 C93.2423502,158.269533 102.048541,158.269533 120.809193,148.158887 C139.571512,138.047118 143.399639,128.77145 139.1882,125.828824 C134.975094,122.883953 125.020632,126.442713 115.06617,131.89813 C105.111709,137.353547 84.0545135,136.793528 88.2659525,128.597496 C92.4773915,120.401464 95.9238719,123.596603 129.615384,119.973874 C163.308562,116.351145 163.691875,92.8045273 163.050243,87.6442706 C162.411944,82.4840138 159.097123,81.4189674 147.227765,87.6442706 C135.358407,93.8684515 102.813499,93.0637747 105.876667,84.9766042 C108.939835,76.8905559 123.490715,84.2650768 140.336471,78.7153879 C157.182227,73.1634544 164.4585,71.5866469 152.204163,43.7248518 C139.954825,15.8641789 107.79323,0.984952308 107.79323,0.984952308 C107.79323,0.984952308 108.174876,6.12164112 95.9238719,13.3670995 C83.6695343,20.6114356 62.9973186,18.2826986 52.2745649,33.9475232 C41.5551444,49.6134701 66.4421323,49.5921468 78.7714658,56.3202327 C91.0957995,63.0471964 86.7343687,68.4812902 67.9720496,66.6699256 C49.2130637,64.8596833 48.8314177,49.5921468 40.7918523,47.0681325 C32.7489538,44.5452406 28.1575353,55.8028603 27.0059309,66.4118005 C25.8576597,77.0207407 42.7784116,95.3734329 42.7784116,95.3734329 C53.8390713,104.02496 55.4647432,109.16289 47.6554274,110.787223 C35.9414536,113.223722 28.0618725,98.3147216 24.3618491,96.8440772 C20.6618257,95.3734329 12.3868198,92.0942479 6.18013023,99.398282 C-0.0265593545,106.702316 -4.36585944,129.260872 18.2129964,141.533026 C40.7918523,153.80518 69.2769791,157.373153 78.7714658,138.673514 C78.7714658,138.673514 86.1593997,121.711168 95.0672515,79.6278039 C103.975103,37.5444399 107.79323,0.984952308 107.79323,0.984952308" id="Border" stroke="#001F4F" stroke-linecap="round" stroke-linejoin="round"></path>
                </g>
                <ellipse id="Filled" fill="#FFFFFF" cx="198.29203" cy="65.2315394" rx="17.7018578" ry="22.477946"></ellipse>
                <ellipse id="Filled" fill="#FFFFFF" cx="238.237114" cy="136.643182" rx="38.3444444" ry="20.5636364"></ellipse>
                <g id="Nature/Leaf/1" transform="translate(222.923226, 70.839545)">
                    <path d="M137.70123,0.706613314 L137.201269,5.01987477 C136.227319,13.7593638 134.217749,33.6314457 134.774782,44.3106369 L134.824888,45.1449753 C135.66921,57.4907138 121.829542,55.5742268 114.927756,54.3947234 L109.745757,53.4937923 C105.494578,52.7839742 102.267731,52.6675254 101.455741,56.7614302 C100.439939,61.8796235 108.720316,64.3164716 117.487008,62.6106779 C126.256144,60.9048842 129.178103,55.7866909 132.829941,60.1738298 C136.483408,64.5601564 127.96028,90.3939954 98.0042941,91.6124194 C68.0507517,92.8308435 67.0756792,80.4021059 63.9109703,85.0329296 C60.777102,89.617445 65.9959524,102.800834 86.1863524,103.536938 L86.8027722,103.555412 C107.295497,104.037908 108.931931,111.686264 95.4941507,116.805361 L95.0823351,116.959701 C81.2007894,122.077894 66.1331906,136.70142 32.7534536,130.36399 C16.9149574,127.357375 13.3619828,119.412474 14.0017757,111.892441 L14.0311621,111.568173 L13.8093839,111.507027 C12.0329217,110.983184 3.82147273,107.922235 1.18159595,95.5280829 L1.07866788,95.0256313 C-1.06209276,84.1483537 2.06595932,73.164667 6.4794453,60.6611994 C13.0271752,42.1135362 23.4841555,36.4535504 25.9198002,45.1449753 L26.0638634,45.6783012 C28.3856567,54.5770379 29.2289861,72.4376415 36.2684392,64.3164716 C43.4531838,56.0303757 26.8924289,34.7209514 31.2765894,26.2439691 C35.5714701,17.9365265 42.4410279,14.0250393 51.4237144,11.807715 L52.72642,11.4920016 C61.7221347,9.25992107 70.4305195,5.40997164 69.5626435,9.68802313 C68.6714745,14.0849094 65.1898874,20.4475198 68.6902102,30.1965367 C72.1528737,39.8384217 77.907111,35.1756168 77.3255032,28.2347506 L77.2337789,27.2550479 C76.6209608,19.9697427 77.4844225,6.51353926 89.4811668,5.33743699 C101.901326,4.11820066 113.591606,7.28610319 123.576935,5.33743699 L124.606343,5.12959345 C133.846105,3.20233879 137.70123,0.706613314 137.70123,0.706613314 Z" id="Filled" fill="#FFFFFF"></path>
                    <path d="M137.70123,131.928841 C137.70123,131.928841 111.64309,108.53185 93.3773838,98.0525912 C75.1133068,87.5725198 20.5621964,36.8795811 20.5621964,36.8795811 C20.5621964,36.8795811 -0.62709802,8.60808168 32.7534536,2.27146433 C66.1331906,-4.0659653 81.2007894,10.5575602 95.0823351,15.6757535 C108.963066,20.7939467 107.502494,28.592673 86.8027722,29.0800426 C66.1022359,29.5674122 60.7454467,42.9717013 63.9109703,47.602525 C67.0756792,52.2333487 68.0507517,39.8046111 98.0042941,41.0230351 C127.96028,42.2414592 136.483408,68.0752982 132.829941,72.4616247 C129.178103,76.8487636 126.256144,71.7305703 117.487008,70.0247766 C108.720316,68.318983 100.439939,70.7558311 101.455741,75.8740244 C102.470729,80.9914054 107.258929,79.5301088 113.104477,78.5545573 C118.948395,77.579818 135.752714,73.9237336 134.824888,87.4904793 C133.896248,101.056413 137.70123,131.928841 137.70123,131.928841 C137.70123,131.928841 133.560634,129.248308 123.576935,127.298018 C113.591606,125.349351 101.901326,128.517254 89.4811668,127.298018 C77.061008,126.080406 76.573879,111.700565 77.3037578,104.632893 C78.0352658,97.5652216 72.1913477,92.6899008 68.6902102,102.438918 C65.1898874,112.187935 68.6714745,118.550545 69.5626435,122.947431 C70.4546271,127.344318 61.2309465,123.155376 51.9763111,120.9614 C42.7224904,118.768237 35.6591207,114.868468 31.2765894,106.391485 C26.8924289,97.9145032 43.4531838,76.6050788 36.2684392,68.318983 C29.0853238,60.0320749 28.3538157,78.7982421 25.9198002,87.4904793 C23.4841555,96.1819042 13.0271752,90.5219183 6.4794453,71.9742551 C2.06595932,59.4707875 -1.06209276,48.4871008 1.07866788,37.6098232 C3.9085775,23.2307948 14.1505043,21.0376316 14.1505043,21.0376316" id="Border" stroke="#001F4F" stroke-linecap="round" stroke-linejoin="round" transform="translate(69.044786, 66.317727) scale(-1, 1) rotate(-180.000000) translate(-69.044786, -66.317727) "></path>
                </g>
                <g id="Nature/Leaf/1" transform="translate(22.466667, 92.611295)">
                    <path d="M4.76726279,1.20076121 C19.964573,2.66422619 29.8872831,3.91884921 34.5353931,4.96463026 L36.3913688,5.40085491 C43.5825495,7.11315248 52.9325669,9.60148369 59.0592103,14.2959969 L59.6453805,14.7523123 C62.6274321,17.117252 64.8570554,19.6628573 64.8570554,25.5213598 C64.8570554,31.7578302 54.1394405,51.8315353 67.4379942,47.232959 C80.7342311,42.6343826 69.8868742,33.5025616 74.0861126,29.9551441 C78.2841927,26.4077266 87.7333479,30.8415109 96.8338216,37.4010154 C105.776634,43.8483833 111.000549,51.2795405 107.185745,62.8098195 L106.69267,64.2413557 C102.834613,75.6483516 104.029391,83.0431537 112.230257,77.8472304 C120.628734,72.5261042 110.830897,58.3354591 116.078497,56.2662948 C121.327255,54.1971304 127.276852,61.8828766 137.074689,78.142686 C146.873684,94.4015203 135.676488,105.635659 135.676488,105.635659 C130.565937,109.741348 124.299808,111.864981 116.878102,112.006556 L116.078497,112.014141 L112.761683,109.392808 C111.684548,108.355473 111.295569,108.009233 113.549542,110.284804 L114.064868,110.804365 C121.487954,118.279581 115.902823,124.734226 97.3094726,130.168301 L96.360589,130.437941 C94.3562487,130.969124 80.8659335,134.335057 68.8512551,132.079423 C55.836512,129.636795 45.7154786,118.886307 45.7154786,118.886307 C36.9474687,105.954984 41.1820189,98.5644213 58.4191292,96.7146187 L59.0186659,96.6530285 C59.0186659,96.6530285 82.4440451,95.431227 78.6850027,88.1013927 C74.9248019,80.7715583 51.4982643,89.3231942 51.4982643,89.3231942 C32.3506855,95.4489393 19.3788036,91.4179574 12.5826186,77.2302484 C10.0028618,69.0341489 14.1039689,63.7413543 24.8859398,61.3518646 L26.6224505,60.9856015 C27.714499,60.7446783 29.5450393,60.3128401 31.9519616,59.644419 L32.4099744,59.5163064 C36.7505389,58.2945049 43.4021326,54.8738505 36.4609363,51.4531962 C29.5174231,48.0325418 16.827035,56.9352141 16.827035,56.9352141 C6.62471664,61.6658866 2.23582339,56.5014521 3.66035527,41.4419105 L3.71506602,40.8865369 C5.25386012,25.8545692 4.34703835,12.8291999 0.994600714,1.81042893 L0.683096422,0.814250299 L4.76726279,1.20076121 Z" id="Filled" fill="#FFFFFF"></path>
                    <path d="M116.078497,112.014141 C123.850754,112.014141 130.383417,109.88798 135.676488,105.635659 C135.676488,105.635659 146.873684,94.4015203 137.074689,78.142686 C127.276852,61.8828766 121.327255,54.1971304 116.078497,56.2662948 C110.830897,58.3354591 120.628734,72.5261042 112.230257,77.8472304 C103.83178,83.1683566 102.781102,75.2846649 106.98034,63.4098848 C111.179579,51.5360797 105.93082,43.9595449 96.8338216,37.4010154 C87.7333479,30.8415109 78.2841927,26.4077266 74.0861126,29.9551441 C69.8868742,33.5025616 80.7342311,42.6343826 67.4379942,47.232959 C54.1394405,51.8315353 64.8570554,31.7578302 64.8570554,25.5213598 C64.8570554,19.2848893 62.3304584,16.8025762 59.0592103,14.2959969 C52.4787414,9.25374197 42.1796752,6.75661608 34.8310526,5.03253729 C29.9319708,3.88315142 18.5493188,2.47705576 0.683096422,0.814250299 C4.28983371,12.0416262 5.30049025,25.3990551 3.71506602,40.8865369 C2.12964179,56.3740187 6.50029812,61.7235778 16.827035,56.9352141 C16.827035,56.9352141 29.5174231,48.0325418 36.4609363,51.4531962 C43.4021326,54.8738505 36.7505389,58.2945049 32.4099744,59.5163064 C28.0728851,60.738108 25.4699365,61.2266336 25.4699365,61.2266336 C14.2525674,63.5532518 9.95679475,68.88779 12.5826186,77.2302484 C19.3788036,91.4179574 32.3506855,95.4489393 51.4982643,89.3231942 C51.4982643,89.3231942 74.9248019,80.7715583 78.6850027,88.1013927 C82.4440451,95.431227 59.0186659,96.6530285 59.0186659,96.6530285 C41.2810828,98.3952553 36.846687,105.806348 45.7154786,118.886307 C45.7154786,118.886307 55.836512,129.636795 68.8512551,132.079423 C81.8671566,134.523027 96.614882,130.369096 96.614882,130.369096 C115.762935,124.893445 121.579597,118.371867 114.064868,110.804365 C106.550138,103.236862 121.643972,118.092255 114.020041,110.602546 L33.1542285,31.1604011 L0.683096422,0.814250299" id="Border" stroke="#001F4F" stroke-linecap="round" stroke-linejoin="round"></path>
                </g>
                <g id="People/Searching" transform="translate(82.637427, 1.694318)">
                    <path d="M79.1547803,3.50729037 L79.1467405,3.71386079 C79.0419759,5.1608875 78.0205795,7.32039349 82.527971,9.30086389 L82.8597953,9.44216566 C87.9811321,11.5567527 90.0910415,14.1307612 91.2607789,18.0463742 C92.0406039,20.6567828 90.9653055,24.5229957 88.0348838,29.6450126 C104.902319,31.0363793 113.889177,37.4672923 114.995456,48.9377516 L115.03412,49.3814081 L115.034131,65.9230678 L139.734512,63.0259962 C141.421359,62.3783937 143.253901,62.0234079 145.169591,62.0234079 C148.21762,62.0234079 151.055156,62.9220754 153.430265,64.4681915 L154.075063,64.6303698 L171.616323,62.5073309 C172.661246,62.2366093 173.750065,62.0744466 174.869947,62.0336393 L175.614566,62.0234079 C183.887995,62.1223024 190.563831,68.8396707 190.563831,77.1118342 C190.563831,84.2000333 185.662216,90.1466512 179.05453,91.7652219 L180.10068,91.8328423 L181.546121,95.7264035 L182.595227,98.6031002 C192.655442,126.412174 196.916212,144.874826 195.377536,153.991056 L195.323453,154.294916 C194.238884,160.08223 190.226124,171.262757 177.332017,172.196958 L177.324907,172.158381 L177.281799,171.575128 C177.258683,171.211947 177.228156,170.689678 177.190218,170.008321 L177.189618,237.014129 L143.949852,254.941597 L110.710085,237.014129 L77.4703194,254.941597 L44.2305533,237.014129 L44.2303516,225.556793 L44.2098336,225.55764 C34.4374157,225.55764 20.9345356,223.55027 10.7981267,214.871329 L10.2385014,214.382272 C-5.05347113,200.742827 2.31511713,180.566741 6.91323291,172.710164 C11.5113487,164.853586 26.1973019,148.609944 29.248065,145.021577 C37.8975663,134.847864 49.7937932,131.25357 56.8298037,129.539957 L59.5240372,128.906996 C61.2817849,128.498986 62.6319741,128.284519 63.3367949,128.186875 L63.8802736,128.118438 L63.844527,128.192034 L63.9177902,128.163623 L63.3710546,49.372921 C63.3710546,43.600341 65.6405649,41.0137584 68.2231961,38.6524213 L69.5970627,37.4178144 C72.6899291,34.6294501 61.9781618,39.2222041 56.0489289,38.0709203 C50.119696,36.9196365 48.7749508,32.9175488 49.3428843,29.8946761 C49.9108178,26.8718035 54.0057264,28.044767 56.0489289,26.0830605 C58.0921313,24.121354 49.8221054,22.643986 51.4615146,20.3451801 C53.1009239,18.0463742 54.5389964,19.3333785 58.0455994,18.0463742 C61.5522023,16.7593699 56.0489289,16.8287901 54.7824044,15.3530253 C53.51588,13.8772604 53.6357653,10.4811291 56.0489289,9.44216566 C58.4084666,8.42629029 62.2346803,12.6177846 62.4035691,9.65537859 L62.4093567,9.44216566 C62.4093567,6.07333449 65.8392547,6.89389721 65.8392547,6.89389721 L65.9773318,6.93347814 L66.248656,6.99977312 C67.195246,7.20879373 69.4237435,7.47812709 69.5875189,5.43217325 L69.5970627,5.18569155 C69.5970627,2.27004188 72.4946968,0.633246008 74.9602695,0.110644275 C77.4258421,-0.411957457 79.1547803,2.03201897 79.1547803,3.50729037 Z M44.2305533,162.174796 L40.8990611,164.619968 L39.7791048,165.512402 L38.593848,166.47982 C31.0409743,172.718099 20.4018439,182.905006 19.8552296,189.460654 C19.1434879,197.996706 23.136891,209.086184 44.2305533,206.303133 L44.2305533,162.174796 Z M115.033767,88.6083864 L115.03412,110.907242 C115.03412,115.910853 112.351357,117.959679 106.985833,117.053718 L99.2903282,115.430403 L98.7449247,116.139307 L99.5643867,116.22995 L99.5242299,116.24987 C97.6790461,117.189531 96.5088812,119.709969 96.5088812,121.182321 L96.5088812,128.249005 L115.03412,128.249005 C125.384007,128.231121 135.022584,129.833112 143.949852,133.054977 C151.209501,135.674997 160.828051,141.030601 167.584325,143.116249 L175.619753,138.780728 L175.614566,138.674677 L163.091133,90.7162583 L165.437463,90.8703864 L153.483374,89.7207464 C151.097506,91.288127 148.240372,92.2002606 145.169591,92.2002606 C143.308914,92.2002606 141.526678,91.8653703 139.880195,91.2527387 L138.599898,91.4244292 L115.033767,88.6083864 Z M101.662492,115.951345 L103.322494,116.307322 L104.919073,116.664234 C105.28814,116.744003 105.662162,116.819501 106.161866,116.910061 L106.985833,117.053718 L99.5643867,116.22995 L99.7401032,116.148613 C100.323603,115.898098 100.969208,115.806815 101.662492,115.951345 Z" id="Filled" fill="#FFFFFF"></path>
                    <path d="M43.6680454,225.55764 C46.7022941,226.534666 59.0391178,223.766363 65.2759593,219.289945 C71.5128009,214.813527 70.6246598,212.365745 70.2207516,211.631672 C69.9514794,211.142289 68.3032154,211.142289 65.2759593,211.631672 C67.6883887,209.538571 68.579648,207.780419 67.9497371,206.357216 C67.3198262,204.934014 65.6698691,204.641133 62.9998657,205.478574 C63.4425741,204.318566 64.3084872,203.511437 63.8657788,202.292004 C63.2212474,200.516654 57.8802996,201.218627 55.8502118,202.292004 L55.6725684,202.389473 C54.5054099,203.055164 50.5037283,204.307564 43.6675234,206.146674 L43.5847953,155.391858 L69.1951979,168.364773 L102.506164,150.785566 L135.67473,168.364773 L169.056895,150.785566 L168.927098,241.097986 L143.408063,254.941597 L110.168297,237.014129 L76.9285312,254.941597 L43.5847953,236.725858 L43.6680454,225.55764 Z" id="Filled" fill="#E9EAEB"></path>
                    <path d="M136.894469,69.7347715 C139.927879,69.7347715 142.75281,70.6248389 145.120936,72.1573524 L145.748223,72.3417334 L163.883483,70.4538457 C164.74777,70.2619904 165.640605,70.1456885 166.554658,70.1122505 L167.105577,70.1021898 C167.1574,70.1021898 167.209159,70.1024561 167.260856,70.1029873 L167.292913,70.1000548 C175.360063,70.2035167 181.868526,76.7554502 181.868526,84.8231979 C181.868526,87.1215474 181.340317,89.2968775 180.398344,91.2350681 C178.37767,91.9877282 176.340051,92.3197695 174.285333,92.231173 L173.771297,92.2002606 L153.533275,89.370721 C150.512239,91.6077569 146.902856,92.5509367 142.705123,92.2002606 L111.557638,88.1062008 C106.158491,87.3786044 103.253219,86.9641986 102.84182,86.8629835 C101.925523,86.6375498 100.843486,86.0365322 99.59571,85.0599306 C91.7021536,86.5318689 89.6632656,81.5183575 89.0262584,79.9691771 C88.6731192,79.1103541 88.5111469,78.0372191 88.5403417,76.7497724 C88.7638135,76.729342 88.9889029,76.7200389 89.2161714,76.7200389 C90.1028485,76.7200389 90.9563575,76.8616448 91.7551951,77.1234143 C92.864399,76.1658403 94.1823819,75.442397 95.631988,75.0303563 L133.249545,70.1754167 C134.250197,69.9286493 135.290105,69.7811724 136.358152,69.7440722 L136.894469,69.7347715 Z" id="Filled" fill="#E9EAEB"></path>
                    <line x1="90.0910415" y1="61.0750822" x2="96.1649968" y2="61.0750822" id="Border" stroke="#001F4F" stroke-linecap="round" stroke-linejoin="round" transform="translate(93.128019, 61.075082) scale(-1, 1) rotate(-180.000000) translate(-93.128019, -61.075082) "></line>
                    <line x1="103.959777" y1="61.0750822" x2="110.850041" y2="61.0750822" id="Border" stroke="#001F4F" stroke-linecap="round" stroke-linejoin="round" transform="translate(107.404909, 61.075082) scale(-1, 1) rotate(-180.000000) translate(-107.404909, -61.075082) "></line>
                    <ellipse id="Border" stroke="#001F4F" stroke-linecap="round" stroke-linejoin="round" cx="145.169591" cy="77.1118342" rx="15.1314133" ry="15.0884264"></ellipse>
                    <path d="M97.0989104,85.8741178 C100.918107,85.0850538 103.793406,81.706209 103.798399,77.6612617 C103.804095,73.0350196 100.05307,69.2893326 95.4202421,69.2950292 C92.9623932,69.2980614 90.7501345,70.3563489 89.2138175,72.0401579" id="Border" stroke="#001F4F" stroke-linecap="round" stroke-linejoin="round" transform="translate(96.506108, 77.584573) scale(-1, 1) rotate(-330.000000) translate(-96.506108, -77.584573) "></path>
                    <path d="M106.75606,87.2290487 C109.487003,85.3651437 111.281966,82.2323095 111.286348,78.6839402 C111.293375,72.9771269 106.666207,68.3565438 100.95127,68.3635711 C99.3375393,68.3655656 97.8096306,68.7363145 96.4475861,69.3958969" id="Border" stroke="#001F4F" stroke-linecap="round" stroke-linejoin="round" transform="translate(103.866967, 77.796310) scale(-1, 1) rotate(-330.000000) translate(-103.866967, -77.796310) "></path>
                    <ellipse id="Border" stroke="#001F4F" stroke-linecap="round" stroke-linejoin="round" cx="175.432417" cy="77.1118342" rx="15.1314133" ry="15.0884264"></ellipse>
                    <line x1="106.386051" y1="66.7677783" x2="141.745824" y2="62.3886912" id="Border" stroke="#001F4F" stroke-linecap="round" stroke-linejoin="round"></line>
                    <line x1="154.006342" y1="64.6303698" x2="172.107203" y2="62.3886912" id="Border" stroke="#001F4F" stroke-linecap="round" stroke-linejoin="round"></line>
                    <line x1="106.386051" y1="90.9784266" x2="141.745824" y2="86.5993395" id="Border" stroke="#001F4F" stroke-linecap="round" stroke-linejoin="round" transform="translate(124.140351, 89.216091) scale(1, -1) translate(-124.140351, -89.216091) "></line>
                    <line x1="154.075063" y1="91.8328423" x2="172.107203" y2="89.5996743" id="Border" stroke="#001F4F" stroke-linecap="round" stroke-linejoin="round" transform="translate(163.091133, 90.716258) scale(1, -1) translate(-163.091133, -90.716258) "></line>
                    <path d="M115.03412,65.4074232 L115.03412,49.3814081 C114.118314,37.6330158 105.118569,31.0542173 88.0348838,29.6450126 C90.9653055,24.5229957 92.0406039,20.6567828 91.2607789,18.0463742 C90.0910415,14.1307612 87.9811321,11.5567527 82.8597953,9.44216566 C77.7384586,7.32757865 79.1547803,4.98256178 79.1547803,3.50729037 C79.1547803,2.03201897 77.4258421,-0.411957457 74.9602695,0.110644275 C72.4946968,0.633246008 69.5970627,2.27004188 69.5970627,5.18569155 C69.5970627,8.10134121 65.8392547,6.89389721 65.8392547,6.89389721 C65.8392547,6.89389721 62.4093567,6.07333449 62.4093567,9.44216566 C62.4093567,12.8109968 58.4620924,8.40320222 56.0489289,9.44216566 C53.6357653,10.4811291 53.51588,13.8772604 54.7824044,15.3530253 C56.0489289,16.8287901 61.5522023,16.7593699 58.0455994,18.0463742 C54.5389964,19.3333785 53.1009239,18.0463742 51.4615146,20.3451801 C49.8221054,22.643986 58.0921313,24.121354 56.0489289,26.0830605 C54.0057264,28.044767 49.9108178,26.8718035 49.3428843,29.8946761 C48.7749508,32.9175488 50.119696,36.9196365 56.0489289,38.0709203 C61.9781618,39.2222041 72.6899291,34.6294501 69.5970627,37.4178144 C66.5041962,40.2061787 63.3710546,42.5903572 63.3710546,49.372921 L63.9178085,128.21572" id="Border" stroke="#001F4F" stroke-linecap="round" stroke-linejoin="round"></path>
                    <path d="M106.985833,117.053718 L73.2917139,109.949328 L73.2917139,83.5879924 L73.3507542,83.9932555 C73.6469123,85.3129192 74.0652103,86.7809949 74.6056482,88.3974827 C79.2637969,102.330334 90.6682607,98.7789818 93.1280192,97.7532784 C95.5877776,96.727575 104.964722,90.1978704 115.03412,94.9837277 L115.03412,110.907242 C115.03412,115.910853 112.351357,117.959679 106.985833,117.053718 C104.691285,116.666287 104.695612,116.583662 101.662492,115.951345 C98.6293724,115.319028 96.5088812,119.200309 96.5088812,121.182321 C96.5088812,123.625252 96.5089334,125.980813 96.5090378,128.249005 L115.03412,128.249005 C125.384007,128.231121 135.022584,129.833112 143.949852,133.054977 C151.230118,135.682438 160.882703,141.061042 167.641819,143.13394" id="Border" stroke="#001F4F" stroke-linecap="round" stroke-linejoin="round"></path>
                    <path d="M175.614566,138.674677 C175.565322,138.391443 175.504719,138.095178 175.432417,137.785495 C173.215608,128.290366 169.090393,112.600621 163.056773,90.7162583" id="Border" stroke="#001F4F" stroke-linecap="round" stroke-linejoin="round"></path>
                    <path d="M115.03412,49.372921 L73.262664,49.372921 C73.262664,57.8089382 73.262664,63.3434809 73.262664,65.9765491 C73.262664,73.4000725 70.0737681,77.1118342 63.6959762,77.1118342" id="Border" stroke="#001F4F" stroke-linecap="round" stroke-linejoin="round"></path>
                    <line x1="115.034142" y1="95.3363479" x2="115.034142" y2="89.165824" id="Border" stroke="#001F4F" stroke-linecap="round" stroke-linejoin="round"></line>
                    <path d="M104.87014,105.522123 C105.62498,104.034408 106.849393,103.042597 108.54338,102.546692 C110.237367,102.050787 112.400951,102.050787 115.034131,102.546692" id="Border" stroke="#001F4F" stroke-linecap="round" stroke-linejoin="round"></path>
                    <path d="M180.10068,91.8328423 C192.068945,123.763957 197.143203,144.584648 195.323453,154.294916 C194.238884,160.08223 190.226124,171.262757 177.332017,172.196955" id="Border" stroke="#001F4F" stroke-linecap="round" stroke-linejoin="round"></path>
                    <path d="M63.6959762,128.21572 C76.0104729,135.877027 86.9481079,135.844599 96.5088812,128.118438" id="Border" stroke="#001F4F" stroke-linecap="round" stroke-linejoin="round"></path>
                    <path d="M58.3261424,129.267039 C74.7944773,141.162456 89.2619393,140.812017 101.728529,128.21572" id="Border" stroke="#001F4F" stroke-linecap="round" stroke-linejoin="round"></path>
                    <line x1="26.1498357" y1="148.605485" x2="40.2901246" y2="165.067641" id="Border" stroke="#001F4F" stroke-linecap="round" stroke-linejoin="round"></line>
                    <line x1="138.599898" y1="133.937482" x2="145.169591" y2="152.905142" id="Border" stroke="#001F4F" stroke-linecap="round" stroke-linejoin="round" transform="translate(141.884744, 143.421312) scale(-1, 1) translate(-141.884744, -143.421312) "></line>
                    <polyline id="Border" stroke="#001F4F" stroke-linecap="round" stroke-linejoin="round" points="44.2305533 206.303133 44.2305533 137.933294 77.4703194 155.860762 77.4703194 254.941597 44.2305533 237.014129 44.2305533 225.55764"></polyline>
                    <polygon id="Border" stroke="#001F4F" stroke-linecap="round" stroke-linejoin="round" transform="translate(94.090202, 196.437445) scale(-1, 1) translate(-94.090202, -196.437445) " points="77.4703194 137.933294 110.710085 155.860762 110.710085 254.941597 77.4703194 237.014129"></polygon>
                    <polygon id="Border" stroke="#001F4F" stroke-linecap="round" stroke-linejoin="round" points="110.710085 137.933294 143.949852 155.860762 143.949852 254.941597 110.710085 237.014129"></polygon>
                    <polygon id="Border" stroke="#001F4F" stroke-linecap="round" stroke-linejoin="round" transform="translate(160.569735, 196.437445) scale(-1, 1) translate(-160.569735, -196.437445) " points="143.949852 137.933294 177.189618 155.860762 177.189618 254.941597 143.949852 237.014129"></polygon>
                    <path d="M63.8802736,128.118438 C63.8802736,128.118438 62.1606588,128.294981 59.5240372,128.906996 C53.2589748,130.360902 39.1332093,133.394476 29.248065,145.021577 C26.1973019,148.609944 11.5113487,164.853586 6.91323291,172.710164 C2.31511713,180.566741 -5.05347113,200.742827 10.2385014,214.382272 C20.4331497,223.475235 34.256445,225.55764 44.2098336,225.55764 C54.9958184,225.55764 67.2071422,219.467808 70.0112123,215.128029 C74.1614445,208.705245 64.6130257,212.221537 64.6130257,212.221537 L61.0838709,214.218384" id="Border" stroke="#001F4F" stroke-linecap="round" stroke-linejoin="round"></path>
                    <path d="M44.2305533,162.116243 C38.3899881,166.23196 20.5669713,180.924602 19.8552296,189.460654 C19.1434879,197.996706 23.136891,209.086184 44.2305533,206.303133 C47.3540456,205.891027 59.8972923,200.427921 62.398399,201.344459 C66.3322254,202.789739 62.6925816,205.910965 62.6925816,205.910965" id="Border" stroke="#001F4F" stroke-linecap="round" stroke-linejoin="round"></path>
                    <path d="M59.1588929,205.535295 C59.1588929,205.535295 68.8829229,205.45331 69.2135276,209.520498 C69.5453689,213.587728 59.1910417,212.178173 59.1910417,212.178173" id="Border" stroke="#001F4F" stroke-linecap="round" stroke-linejoin="round" transform="translate(64.190115, 208.974786) scale(1, -1) rotate(25.000000) translate(-64.190115, -208.974786) "></path>
                </g>
                <g id="Nature/Cloud/2-Medium" transform="translate(56.215205, 33.825000)">
                    <path d="M0.00222903948,2.59444539 C0.0640957046,1.14470906 1.25846605,0 2.71405119,0 L49.8942574,0.109672725 C51.580124,0.113099997 52.9429092,1.47544087 52.9429092,3.15480447 C52.9429092,4.82731352 51.5921537,6.18622712 49.9114426,6.20164984 L46.8095168,6.22906803 C44.2368946,6.2513453 41.7570724,7.40976345 40.2499317,9.48840431 C38.7565392,11.5499088 36.1581392,13.8376133 31.9821394,13.8376133 C28.5691617,13.8376133 26.2079173,12.6569179 24.6389099,11.3545543 C22.8138433,9.83455885 20.4405693,9.14910432 18.1102582,9.64263158 C16.8265249,9.91509975 15.3262583,9.98021793 13.767562,9.51410885 C12.0816954,9.00858614 11.1502584,8.40709979 10.552214,7.80732708 C8.94196215,6.19650894 6.67867332,5.40652259 4.39991782,5.40652259 L2.71405119,5.40652259 C1.17425864,5.40652259 -0.0596376256,4.1281499 0.00222903948,2.59444539 Z" id="Filled" fill="#FFFFFF" transform="translate(26.471455, 6.918807) scale(-1, 1) rotate(-180.000000) translate(-26.471455, -6.918807) "></path>
                    <path d="M0.00222903948,2.59444539 C0.0640957046,1.14470906 1.25846605,0 2.71405119,0 L49.8942574,0.109672725 C51.580124,0.113099997 52.9429092,1.47544087 52.9429092,3.15480447 C52.9429092,4.82731352 51.5921537,6.18622712 49.9114426,6.20164984 L46.8095168,6.22906803 C44.2368946,6.2513453 41.7570724,7.40976345 40.2499317,9.48840431 C38.7565392,11.5499088 36.1581392,13.8376133 31.9821394,13.8376133 C28.5691617,13.8376133 26.2079173,12.6569179 24.6389099,11.3545543 C22.8138433,9.83455885 20.4405693,9.14910432 18.1102582,9.64263158 C16.8265249,9.91509975 15.3262583,9.98021793 13.767562,9.51410885 C12.0816954,9.00858614 11.1502584,8.40709979 10.552214,7.80732708 C8.94196215,6.19650894 6.67867332,5.40652259 4.39991782,5.40652259 L2.71405119,5.40652259 C1.17425864,5.40652259 -0.0596376256,4.1281499 0.00222903948,2.59444539 Z" id="Border" stroke="#001F4F" stroke-linecap="round" stroke-linejoin="round" transform="translate(26.471455, 6.918807) scale(-1, 1) rotate(-180.000000) translate(-26.471455, -6.918807) "></path>
                </g>
                <g id="Nature/Cloud/2-Medium" transform="translate(2.119790, 1.694318)">
                    <path d="M0.00308839483,3.77171354 C0.0890143186,1.66394087 1.8264365,9.13208902e-15 3.94193274,9.13208902e-15 L72.5709681,0.157654542 C75.0215754,0.164509087 77.0064642,2.14547267 77.0064642,4.58911807 C77.0064642,7.01905437 75.0370421,8.99830432 72.6001829,9.01886796 L68.0856348,9.05656796 C64.3444201,9.08912705 60.7406869,10.7770588 58.5461388,13.7999133 C56.3739314,16.7987769 52.5914723,20.1266586 46.5199465,20.1266586 C41.5534281,20.1266586 38.1181097,18.4078814 35.8410727,16.5160269 C33.1808061,14.3020087 29.7283025,13.3046724 26.339384,14.0261133 C24.4713544,14.4219633 22.2905545,14.5144996 20.0255472,13.8376133 C17.5732213,13.1041769 16.2155917,12.2267951 15.3460213,11.3562679 C13.0036807,9.01372705 9.7144363,7.86216344 6.39769564,7.86216344 L3.94193274,7.86216344 C1.70442169,7.86216344 -0.0845560474,6.00458167 0.00308839483,3.77171354 Z" id="Filled" fill="#FFFFFF" transform="translate(38.503232, 10.063329) scale(-1, 1) rotate(-180.000000) translate(-38.503232, -10.063329) "></path>
                    <path d="M0.00308839483,3.77171354 C0.0890143186,1.66394087 1.8264365,0 3.94193274,0 L72.5709681,0.157654542 C75.0215754,0.164509087 77.0064642,2.14547267 77.0064642,4.58911807 C77.0064642,7.01905437 75.0370421,8.99830432 72.6001829,9.01886796 L68.0856348,9.05656796 C64.3444201,9.08912705 60.7406869,10.7770588 58.5461388,13.7999133 C56.3739314,16.7987769 52.5914723,20.1266586 46.5199465,20.1266586 C41.5534281,20.1266586 38.1181097,18.4078814 35.8410727,16.5160269 C33.1808061,14.3020087 29.7283025,13.3046724 26.339384,14.0261133 C24.4713544,14.4219633 22.2905545,14.5144996 20.0255472,13.8376133 C17.5732213,13.1041769 16.2155917,12.2267951 15.3460213,11.3562679 C13.0036807,9.01372705 9.7144363,7.86216344 6.39769564,7.86216344 L3.94193274,7.86216344 C1.70442169,7.86216344 -0.0845560474,6.00458167 0.00308839483,3.77171354 Z" id="Border" stroke="#001F4F" stroke-linecap="round" stroke-linejoin="round" transform="translate(38.503232, 10.063329) scale(-1, 1) rotate(-180.000000) translate(-38.503232, -10.063329) "></path>
                </g>
                <g id="Sparks" transform="translate(122.933667, 67.199581) rotate(-169.000000) translate(-122.933667, -67.199581) translate(110.044778, 49.849013)" stroke="#DC143D" stroke-linecap="round" stroke-linejoin="round">
                    <line x1="0.644444444" y1="7.06875" x2="8.37777778" y2="0.642613636" id="Border"></line>
                    <line x1="6.52434035" y1="17.7931712" x2="24.5687848" y2="15.2227167" id="Border"></line>
                    <line x1="4.51111111" y1="30.697902" x2="17.4" y2="33.2683566" id="Border"></line>
                </g>
                <g id="Ayo-!" transform="translate(238.237114, 1.051705)">
                    <path d="M25.4164213,4.56604451e-15 L118.410054,4.56604451e-15 C120.619193,1.20086706e-14 122.410054,1.790861 122.410054,4 L122.410054,54.4228151 C122.410054,56.6319541 120.619193,58.4228151 118.410054,58.4228151 L9.15810637e-15,58.4228151 L9.15810637e-15,58.4228151 L21.4164213,34.3552194 L21.4164213,4 C21.4164213,1.790861 23.2072823,4.97185676e-15 25.4164213,4.56604451e-15 Z" id="Filled" fill="#FFFFFF"></path>
                    <path d="M25.4164213,4.56604451e-15 L118.410054,4.56604451e-15 C120.619193,1.20086706e-14 122.410054,1.790861 122.410054,4 L122.410054,54.4228151 C122.410054,56.6319541 120.619193,58.4228151 118.410054,58.4228151 L8.24229573e-14,58.4228151 L8.24229573e-14,58.4228151 L21.4164213,34.3552194 L21.4164213,4 C21.4164213,1.790861 23.2072823,4.97185676e-15 25.4164213,4.56604451e-15 Z" id="Border" stroke="#001F4F" stroke-linecap="round" stroke-linejoin="round"></path>
                    <g id="Filled">
                        <use fill="#00398F" xlink:href="#path-2"></use>
                        <use fill-opacity="0.45" fill="#000000" xlink:href="#path-2"></use>
                    </g>
                </g>
            </g>
        </g>
    </g>
</svg>