<?xml version="1.0" encoding="UTF-8"?>
<svg width="24px" height="24px" viewBox="0 0 24 24" version="1.1" xmlns="http://www.w3.org/2000/svg" xmlns:xlink="http://www.w3.org/1999/xlink">
    <title>3D2593FE-968F-4244-9A5B-9E28B61E460C</title>
    <g id="Desktop" stroke="none" stroke-width="1" fill="none" fill-rule="evenodd">
        <g id="12---Select-account---Selected-state" transform="translate(-296.000000, -393.000000)">
            <g id="Group-3" transform="translate(280.000000, 377.000000)">
                <g id="💎-Icone" transform="translate(16.000000, 16.000000)">
                    <rect id="BG" fill-opacity="0.01" fill="#D8D8D8" x="0" y="0" width="24" height="24"></rect>
                    <path d="M2,8.5 L17,8.5 C18.1046,8.5 19,9.39543 19,10.5 L19,17.5 L4,17.5 C2.8954,17.5 2,16.6046 2,15.5 L2,8.5 Z" id="Path" fill="#F7738E" fill-rule="nonzero"></path>
                    <path d="M20,6 C21.0543909,6 21.9181678,6.81587825 21.9945144,7.85073772 L22,8 L22,16 C22,17.0543909 21.18415,17.9181678 20.1492661,17.9945144 L20,18 L4,18 C2.94560909,18 2.08183223,17.18415 2.00548556,16.1492661 L2,16 L2,8 C2,6.94563868 2.81585,6.08183492 3.85073387,6.00548574 L4,6 L20,6 Z M19,7 L5,7 L3,9 L3,15 L5,17 L19,17 L21,15 L21,9 L19,7 Z M12,9 C13.6569,9 15,10.34315 15,12 C15,13.65685 13.6569,15 12,15 C10.3431,15 9,13.65685 9,12 C9,10.34315 10.3431,9 12,9 Z M12,10 C10.8954,10 10,10.89543 10,12 C10,13.10457 10.8954,14 12,14 C13.1046,14 14,13.10457 14,12 C14,10.89543 13.1046,10 12,10 Z M6,11 C6.5523,11 7,11.44771 7,12 C7,12.55229 6.5523,13 6,13 C5.4477,13 5,12.55229 5,12 C5,11.44771 5.4477,11 6,11 Z M18,11 C18.5523,11 19,11.44771 19,12 C19,12.55229 18.5523,13 18,13 C17.4477,13 17,12.55229 17,12 C17,11.44771 17.4477,11 18,11 Z" id="Shape" fill="#000000"></path>
                </g>
            </g>
        </g>
    </g>
</svg>