<?xml version="1.0" encoding="UTF-8"?>
<svg width="374px" height="395px" viewBox="0 0 374 395" version="1.1" xmlns="http://www.w3.org/2000/svg" xmlns:xlink="http://www.w3.org/1999/xlink">
    <title>6A12B1FD-42BB-400E-BB81-0E43B2D64E82</title>
    <g id="Desktop" stroke="none" stroke-width="1" fill="none" fill-rule="evenodd">
        <g id="02---Login" transform="translate(-85.000000, -163.000000)">
            <g id="Illustrations" transform="translate(85.000000, 163.000000)">
                <g id="Group" transform="translate(0.675000, 0.525000)">
                    <path d="M280.035146,336.895721 C231.848776,366.970928 181.371703,376.516017 113.724305,364.621556 C46.0769064,352.727095 7.32411036,275.864642 2.81047383,242.122049 C-1.7031627,208.379456 -13.1626898,126.584639 88.9830206,88.0165255 C191.128731,49.4484115 274.0135,60.7090643 321.298146,79.1061455 C368.582793,97.5032266 378.707332,181.948581 368.582793,222.077622 C358.458254,262.206664 328.221516,306.820514 280.035146,336.895721 Z" id="Path-4" fill="#F9F9F9"></path>
                    <g id="Illustration">
                        <g id="Background" transform="translate(27.028433, 209.764142)" fill="#3AAEB0">
                            <path d="M194.600224,29.3787313 C196.809363,29.3787313 198.600224,31.1695923 198.600224,33.3787313 L198.600224,127.029142 C198.600224,129.238281 196.809363,131.029142 194.600224,131.029142 L55.7065672,131.029142 C53.4974282,131.029142 51.7065672,129.238281 51.7065672,127.029142 L51.7065672,33.3787313 C51.7065672,31.1695923 53.4974282,29.3787313 55.7065672,29.3787313 L62.1802053,29.3772883 C59.9703018,40.176792 57.9842676,53.7618207 62.591188,62.8704851 C66.2101592,70.0258058 74.3370476,80.1161624 86.9718534,93.141555 L86.9718534,93.141555 L88.272289,94.4762891 L89.6038047,95.831259 L90.9664006,97.2064647 L93.8240295,94.9940771 L94.1935412,95.607645 C96.7196332,99.878213 97.6029946,103.240558 98.1167366,107.148366 C98.5916626,110.760918 99.2204895,111.460228 100.059168,111.57103 L100.059168,111.57103 L100.218893,111.585477 L100.383618,111.589536 C101.094405,111.589536 101.600025,111.274725 101.833794,110.393597 C101.883867,110.488676 101.933168,110.565955 101.981697,110.625433 C102.935581,111.794535 105.030413,111.946356 105.326547,109.876455 C105.354504,109.68104 105.378502,109.482063 105.398542,109.279525 L105.398542,109.279525 L105.702189,109.310563 C109.884075,109.643698 110.370763,105.970262 109.040616,98.8675583 L109.040616,98.8675583 L108.891234,98.0934585 L108.728461,97.293272 L108.55281,96.4671568 C106.642667,87.6573726 90.5334685,75.7985707 81.3739642,65.4100042 C73.0599526,55.9803823 71.176064,50.9936239 70.8991105,45.4990975 L70.8991105,45.4990975 L70.8762974,44.9383888 L70.8634362,44.3730223 L70.8593997,43.8018408 L70.8678721,42.9263493 C70.9153227,40.3467702 71.1620856,36.6922318 71.6081607,31.9627342 L71.6081607,31.9627342 L71.8017647,29.967973 L104.208164,29.966306 L104.207567,29.377983 L194.600224,29.3787313 Z" id="🎨-Colour"></path>
                        </g>
                        <g id="Lines">
                            <g transform="translate(1.175149, 9.401194)">
                                <line x1="142.606035" y1="343.143582" x2="336.63057" y2="343.143582" id="Line-2" stroke="#000000" stroke-linecap="round" stroke-linejoin="round"></line>
                                <line x1="107.206136" y1="343.143582" x2="131.418297" y2="343.143582" id="Line-2-Copy" stroke="#000000" stroke-linecap="round" stroke-linejoin="round"></line>
                                <line x1="0.523232571" y1="343.143582" x2="94.7927962" y2="343.143582" id="Line-2-Copy-2" stroke="#000000" stroke-linecap="round" stroke-linejoin="round"></line>
                                <path d="M123.815699,328.26426 C131.945129,341.559896 138.619154,355.604653 143.837775,370.39853 C153.460108,368.024336 159.488856,364.3399 161.92402,359.345222 C157.771348,358.192586 153.718806,358.192586 149.766393,359.345222 C141.873753,343.215381 136.786054,332.817873 134.503296,328.152701" id="Path-2" stroke="#000000" stroke-linecap="round" stroke-linejoin="round"></path>
                                <path d="" id="Path-5" stroke="#000000"></path>
                                <path d="M97.2847032,328.208706 C96.4782197,344.442299 94.7427799,356.726516 92.0783838,365.061355 C91.2243291,368.111232 91.2243291,370.791338 92.0783838,373.101671 C93.3594657,376.567171 110.685521,374.352027 112.709081,371.322833 C110.924097,368.566277 107.039402,366.479118 101.054995,365.061355 C104.696342,349.698481 106.726962,337.421436 107.146856,328.230219" id="Path-6" stroke="#000000" stroke-linecap="round" stroke-linejoin="round"></path>
                                <path d="M27.4359016,263.102019 C48.3777553,261.679006 66.1824627,248.825882 74.6608366,230.731833" id="Oval" stroke="#000000" transform="translate(51.048369, 246.916926) scale(-1, 1) translate(-51.048369, -246.916926) "></path>
                                <path d="M86.864749,224.47829 C88.1662306,221.644703 88.8918966,218.491777 88.8918966,215.169362 C88.8918966,202.838039 78.895384,192.841527 66.5640608,192.841527 C64.6818134,192.841527 62.8539644,193.074434 61.1077612,193.513" id="Oval" stroke="#000000" transform="translate(74.999829, 208.659908) scale(-1, -1) translate(-74.999829, -208.659908) "></path>
                                <rect id="Rectangle" stroke="#000000" stroke-linejoin="round" x="32.1233232" y="197.542124" width="18.9250459" height="28.0865331"></rect>
                                <line x1="41.5245172" y1="198.071174" x2="41.5245172" y2="225.099607" id="Line-3-Copy-2" stroke="#000000" stroke-linecap="square"></line>
                                <line x1="46.2251142" y1="198.071174" x2="46.2251142" y2="225.099607" id="Line-3-Copy-3" stroke="#000000" stroke-linecap="square"></line>
                                <line x1="36.8239202" y1="198.071174" x2="36.8239202" y2="225.099607" id="Line-3-Copy" stroke="#000000" stroke-linecap="square"></line>
                                <line x1="35.633813" y1="264.20125" x2="35.633813" y2="308.887032" id="Line-3-Copy-4" stroke="#000000" stroke-linecap="round" stroke-linejoin="round"></line>
                                <rect id="Rectangle" stroke="#000000" stroke-linejoin="round" transform="translate(39.184424, 323.175917) scale(-1, 1) translate(-39.184424, -323.175917) " x="35.633813" y="318.485192" width="7.10122245" height="9.38144955"></rect>
                                <path d="M48.8856547,327.866642 C46.2181012,327.866642 44.1678947,326.361498 42.7350354,323.351212 C43.8501745,320.107199 45.9003809,318.485192 48.8856547,318.485192" id="Rectangle-Copy-2" stroke="#000000" stroke-linejoin="round" transform="translate(45.810345, 323.175917) scale(-1, 1) translate(-45.810345, -323.175917) "></path>
                                <polyline id="Rectangle" stroke="#000000" stroke-linejoin="round" transform="translate(67.486337, 309.651828) scale(-1, 1) translate(-67.486337, -309.651828) " points="60.5439783 291.437015 79.3463664 291.437015 79.3463664 327.866642 55.6263083 327.866642"></polyline>
                                <path d="M68.4610914,318.475429 C73.0635678,318.170853 76.7024102,314.341171 76.7024102,309.661592 C76.7024102,304.783059 72.7475785,300.828228 67.8690463,300.828228 C66.4666803,300.828228 65.1406409,301.15502 63.9629261,301.736608" id="Oval" stroke="#000000" transform="translate(70.332668, 309.651828) scale(-1, -1) rotate(-345.000000) translate(-70.332668, -309.651828) "></path>
                                <line x1="45.0862567" y1="274.01907" x2="45.0862567" y2="308.887032" id="Line-3-Copy-5" stroke="#000000" stroke-linecap="round" stroke-linejoin="round"></line>
                                <path d="M97.6151411,230.329254 L220.847801,230.329254 C223.05694,230.329254 224.847801,232.120115 224.847801,234.329254 L224.847801,323.866642 C224.847801,326.075781 223.05694,327.866642 220.847801,327.866642 L78.4286963,327.866642 C76.2195573,327.866642 74.4286963,326.075781 74.4286963,323.866642 L74.4286963,244.431045 L74.4286963,244.431045 L74.4286963,234.329254 C74.4286963,232.120115 76.2195573,230.329254 78.4286963,230.329254 L87.4946043,230.329254 L87.4946043,230.329254" id="Rectangle" stroke="#000000" stroke-linejoin="round"></path>
                                <circle id="Oval" stroke="#FFFFFF" cx="204.869443" cy="309.079424" r="9.40119403"></circle>
                                <circle id="Oval-Copy" stroke="#FFFFFF" cx="193.822652" cy="309.079424" r="9.40119403"></circle>
                                <path d="M136.317313,235.830216 L136.317313,297.619065 C136.317313,299.828204 134.526452,301.619065 132.317313,301.619065 L-10.101791,301.619065 C-12.31093,301.619065 -14.101791,299.828204 -14.101791,297.619065 L-14.101791,234.248995 L-14.101791,234.248995" id="Rectangle-Copy" stroke="#000000" stroke-linejoin="round" transform="translate(61.107761, 267.934030) scale(-1, 1) rotate(-90.000000) translate(-61.107761, -267.934030) "></path>
                                <line x1="214.859032" y1="239.668582" x2="178.429405" y2="239.668582" id="Line" stroke="#FFFFFF" stroke-linecap="round" stroke-linejoin="round"></line>
                                <polyline id="Rectangle" stroke="#FFFFFF" stroke-linejoin="round" transform="translate(94.985452, 275.057903) scale(-1, 1) translate(-94.985452, -275.057903) " points="101.590863 264.418236 104.903212 264.418236 104.903212 285.697571 85.0676925 285.697571"></polyline>
                                <polyline id="Line-3-Copy-6" stroke="#FFFFFF" stroke-linecap="round" stroke-linejoin="round" points="85.9303216 278.604459 93.5508825 278.604459 98.5505825 285.697571 101.434323 281.97395"></polyline>
                                <line x1="85.9303216" y1="271.511348" x2="93.2310844" y2="271.511348" id="Line-3-Copy-7" stroke="#FFFFFF" stroke-linecap="round" stroke-linejoin="round"></line>
                                <line x1="94.4249748" y1="279.625589" x2="94.4249748" y2="272.634627" id="Line-3-Copy-8" stroke="#FFFFFF" stroke-linecap="round" stroke-linejoin="round"></line>
                                <line x1="168.440637" y1="296.109586" x2="134.939208" y2="296.109586" id="Line-Copy" stroke="#FFFFFF" stroke-linecap="round" stroke-linejoin="round"></line>
                                <line x1="114.52579" y1="296.109586" x2="85.0676925" y2="296.109586" id="Line-Copy-2" stroke="#FFFFFF" stroke-linecap="round" stroke-linejoin="round"></line>
                                <line x1="159.039443" y1="305.566832" x2="136.118423" y2="305.566832" id="Line-Copy-3" stroke="#FFFFFF" stroke-linecap="round" stroke-linejoin="round"></line>
                                <line x1="122.682281" y1="305.566832" x2="85.0676925" y2="305.566832" id="Line-Copy-4" stroke="#FFFFFF" stroke-linecap="round" stroke-linejoin="round"></line>
                                <polyline id="Line-3" stroke="#FFFFFF" stroke-linecap="round" stroke-linejoin="round" points="106.794938 264.418236 113.845834 264.418236 113.845834 272.056706"></polyline>
                                <path d="M103.473758,208.552275 L102.632278,208.659908 C95.6828661,209.547075 91.4391296,213.665695 89.9010691,221.015768 C87.5939782,232.040878 82.4639685,251.408962 88.4444716,263.233433 C92.4314737,271.116413 101.889878,282.56174 116.819684,297.569412 L128.804804,288.287396" id="Path-7" stroke="#000000" stroke-linecap="round" stroke-linejoin="round"></path>
                                <path d="M127.413512,305.015659 C127.694491,306.605048 127.834981,308.053947 127.834981,309.362357 C127.834981,311.324972 127.240419,311.952483 126.236902,311.952483 C125.233384,311.952483 124.504312,311.575434 123.97002,307.511314 C123.435728,303.447193 122.501656,299.973046 119.735727,295.453672" id="Path-8" stroke="#000000" stroke-linecap="round" stroke-linejoin="round"></path>
                                <path d="M131.17983,305.566832 C131.377253,307.301946 131.377253,308.859469 131.17983,310.239403 C130.883697,312.309304 128.788864,312.157483 127.834981,310.988381" id="Path-9" stroke="#000000" stroke-linecap="round" stroke-linejoin="round"></path>
                                <path d="M99.1647267,209.72695 L95.3593658,216.916203 L98.6189899,221.436476 C97.3481188,232.439701 96.7126832,240.015806 96.7126832,244.164789 C96.7126832,250.388263 98.0677434,255.384386 107.227248,265.772952 C116.386752,276.161518 132.49595,288.02032 134.406094,296.830105 C136.316237,305.639889 136.181661,310.18779 131.327897,309.651828" id="Path-10" stroke="#000000" stroke-linecap="round" stroke-linejoin="round"></path>
                                <path d="M92.6491698,214.00658 C92.6491698,185.159069 92.6491698,169.49151 92.6491698,167.003902 C92.6491698,164.516295 93.3637119,161.315503 94.7927962,157.401526 C99.2741087,146.288449 111.553778,144.157962 121.434666,145.981049 C128.021925,147.196441 131.647201,151.314167 132.310493,158.334229 C132.310493,170.678817 132.310493,178.560698 132.310493,181.979874 C132.310493,185.39905 129.739857,188.568127 124.598585,191.487107 L124.598585,230.329254" id="Line-3-Copy-10" stroke="#000000" stroke-linecap="round" stroke-linejoin="round"></path>
                                <path d="M132.310493,158.334229 L113.226548,158.334229 L113.226548,165.347126 C113.195003,168.34967 111.966385,171.194054 109.540691,173.88028 C105.902151,177.909618 103.689962,181.292688 103.689962,184.853293 C103.689962,187.227029 103.689962,195.089584 103.689962,208.440958 C103.683529,212.725247 106.862391,215.039844 113.226548,215.384751 C119.590704,215.729659 123.407759,213.843725 124.677711,209.72695" id="Path-11" stroke="#000000" stroke-linecap="round" stroke-linejoin="round"></path>
                                <line x1="132.310493" y1="164.578185" x2="113.736404" y2="164.578185" id="Line-3-Copy-12" stroke="#000000" stroke-linecap="round" stroke-linejoin="round"></line>
                                <line x1="120.975715" y1="161.537193" x2="117.776671" y2="161.537193" id="Line-3-Copy-13" stroke="#000000" stroke-linecap="round" stroke-linejoin="round"></line>
                                <path d="M123.362841,180.273991 C123.30805,181.682093 123.96796,182.640909 125.342569,183.150438 C127.404483,183.914731 128.919651,182.624803 129.143774,182.191462 C129.367897,181.758122 129.78732,180.890154 129.657509,180.087365" id="Path-12" stroke="#000000" stroke-linecap="round" stroke-linejoin="round"></path>
                                <path d="M125.530006,174.584215 C125.509616,175.873436 126.174296,176.518047 127.524047,176.518047 C128.873798,176.518047 129.68211,176.518047 129.948985,176.518047 C130.788108,176.432562 131.207669,176.250038 131.207669,175.970475 C131.207669,175.551131 131.459938,175.461144 130.319209,174.187327 C129.343391,173.097662 128.902678,172.58171 128.795647,171.639387" id="Path-13" stroke="#000000" stroke-linecap="round" stroke-linejoin="round"></path>
                                <path d="M132.310493,169.466654 C131.033071,170.519272 129.864367,171.045581 128.804382,171.045581 C127.214404,171.045581 124.545432,171.005428 124.030486,167.786259 C123.389861,170.678159 121.580514,171.94522 118.602444,171.58744 C114.135339,171.050771 114.412257,168.636409 114.412257,165.45024" id="Path-14" stroke="#000000" stroke-linecap="round" stroke-linejoin="round"></path>
                                <line x1="129.285653" y1="188.413897" x2="129.285653" y2="208.153988" id="Line-3-Copy-11" stroke="#000000" stroke-linecap="round" stroke-linejoin="round"></line>
                                <polyline id="Line-3-Copy-16" stroke="#000000" stroke-linecap="round" stroke-linejoin="round" points="129.285653 208.552275 133.797416 217.216318 129.285653 221.333887 129.285653 229.818213"></polyline>
                                <line x1="103.689962" y1="206.32751" x2="103.689962" y2="230.329254" id="Line-3-Copy-9" stroke="#000000" stroke-linecap="round" stroke-linejoin="round"></line>
                                <path d="M124.887609,208.659926 L141.482166,208.659926 C146.636229,208.198328 151.399508,205.762481 155.772002,201.352386 C162.330742,194.737243 166.239263,185.605986 166.239263,178.622687 C166.239263,171.639387 164.666871,159.639728 150.539526,145.724607 L155.772002,138.018372" id="Path-15" stroke="#000000"></path>
                                <path d="M129.285653,230.329254 C129.028833,227.195522 130.532754,225.628657 133.797416,225.628657 C138.694409,225.628657 146.969723,225.886488 155.494899,219.185244 C164.020075,212.484 176.181022,195.326129 177.841831,186.879487 C179.502639,178.432846 183.855688,170.683621 171.432646,155.40058 C159.009604,140.117539 156.350347,138.834796 143.207836,129.649892 C142.152324,128.997836 141.288292,128.997836 140.61574,129.649892 C139.866056,130.37673 139.89649,131.530607 140.20987,132.310123" id="Path-16" stroke="#000000" stroke-linecap="round" stroke-linejoin="round"></path>
                                <path d="M144.019373,134.685692 L142.581637,133.720754 C141.489059,133.207672 140.745661,133.079401 140.351445,133.335943 C139.76012,133.720754 138.976564,134.005978 138.976564,134.98415 C138.976564,135.636265 139.182294,136.284778 139.593755,136.929689" id="Path-17" stroke="#000000" stroke-linecap="round" stroke-linejoin="round"></path>
                                <path d="M144.019373,138.314052 C142.827521,137.510739 141.904369,137.049285 141.249916,136.929689 C140.268237,136.750296 139.548832,136.57772 139.189325,137.431403 C138.829818,138.285086 138.867921,138.702956 139.757817,139.632073 C140.647712,140.56119 145.476765,141.652524 150.539526,145.724607" id="Path-18" stroke="#000000" stroke-linecap="round" stroke-linejoin="round"></path>
                                <path d="M196.644219,122.303383 C196.644219,95.6451613 171.389871,74.034403 140.237055,74.034403 C109.084238,74.034403 83.8298904,95.6451613 83.8298904,122.303383" id="Oval" stroke="#000000"></path>
                                <path d="M177.841831,122.303383 C177.841831,95.6451613 161.005599,74.034403 140.237055,74.034403 C119.46851,74.034403 102.632278,95.6451613 102.632278,122.303383" id="Oval" stroke="#000000"></path>
                                <path d="M159.039443,122.303383 C159.039443,95.6451613 150.621327,74.034403 140.237055,74.034403 C129.852782,74.034403 121.434666,95.6451613 121.434666,122.303383" id="Oval" stroke="#000000"></path>
                                <path d="M102.632278,122.303383 C102.632278,117.111247 98.4232205,112.902189 93.2310844,112.902189 C88.0389483,112.902189 83.8298904,117.111247 83.8298904,122.303383" id="Oval" stroke="#000000" stroke-linecap="round" stroke-linejoin="round"></path>
                                <path d="M121.434666,122.303383 C121.434666,117.111247 117.225609,112.902189 112.033472,112.902189 C106.841336,112.902189 102.632278,117.111247 102.632278,122.303383" id="Oval-Copy-3" stroke="#000000" stroke-linecap="round" stroke-linejoin="round"></path>
                                <path d="M140.237055,122.303383 C140.237055,117.111247 136.027997,112.902189 130.835861,112.902189 C125.643724,112.902189 121.434666,117.111247 121.434666,122.303383" id="Oval-Copy-4" stroke="#000000" stroke-linecap="round" stroke-linejoin="round"></path>
                                <path d="M159.039443,122.303383 C159.039443,117.111247 154.830385,112.902189 149.638249,112.902189 C144.446112,112.902189 140.237055,117.111247 140.237055,122.303383" id="Oval-Copy-5" stroke="#000000" stroke-linecap="round" stroke-linejoin="round"></path>
                                <path d="M177.841831,122.303383 C177.841831,117.111247 173.632773,112.902189 168.440637,112.902189 C163.248501,112.902189 159.039443,117.111247 159.039443,122.303383" id="Oval-Copy-6" stroke="#000000" stroke-linecap="round" stroke-linejoin="round"></path>
                                <path d="M196.644219,122.303383 C196.644219,117.111247 192.435161,112.902189 187.243025,112.902189 C182.050889,112.902189 177.841831,117.111247 177.841831,122.303383" id="Oval-Copy-7" stroke="#000000" stroke-linecap="round" stroke-linejoin="round"></path>
                                <line x1="140.237055" y1="140.096547" x2="140.237055" y2="207.646292" id="Line-3-Copy-15" stroke="#000000" stroke-linecap="round" stroke-linejoin="round"></line>
                                <line x1="140.237055" y1="75.3877062" x2="140.237055" y2="130.31868" id="Line-3-Copy-17" stroke="#000000" stroke-linecap="round" stroke-linejoin="round"></line>
                                <path d="M223.897491,232.714342 C239.607791,234.899389 249.128108,234.10436 252.458444,230.329254 C257.453947,224.666594 229.741966,209.23867 212.227553,203.331872 C200.551278,199.394007 188.309844,196.21542 175.503252,193.796112" id="Path-19" stroke="#000000" stroke-linejoin="round"></path>
                                <line x1="252.745867" y1="230.329254" x2="170.86176" y2="201.567082" id="Line-4" stroke="#000000" stroke-linecap="round" stroke-linejoin="round"></line>
                                <path d="M213.450186,230.329254 C193.022018,224.061791 177.659027,216.227463 167.361212,206.826269" id="Path-20" stroke="#000000" stroke-linecap="round" stroke-linejoin="round"></path>
                                <path d="M251.39712,229.818213 C269.443468,237.43532 283.963611,236.681023 294.957547,227.555322 C311.448452,213.866771 329.00503,201.460216 327.075836,194.937057 C325.789707,190.588284 313.200895,193.593411 289.309401,203.952439" id="Path-21" stroke="#000000"></path>
                                <line x1="326.498211" y1="195.662351" x2="265.978025" y2="233.93743" id="Line-5" stroke="#000000" stroke-linecap="round" stroke-linejoin="round"></line>
                                <path d="M253.051383,230.329254 C285.566188,206.941219 306.239471,191.290566 315.07123,183.377295 C328.318869,171.507388 331.162191,168.121412 328.260935,164.78585 C325.359679,161.450287 283.268057,163.726359 238.751073,214.79989" id="Path-22" stroke="#000000"></path>
                                <path d="M328.260935,165.798293 C289.764395,182.608212 262.39939,200.668105 246.165919,219.977971" id="Path-23" stroke="#000000"></path>
                                <path d="M221.161834,206.826269 C207.358571,184.355544 199.186033,165.553156 196.644219,150.419104 C192.831498,127.718028 209.398958,143.812588 218.526905,157.504508 C224.612203,166.632456 234.441411,182.425847 248.014529,204.884684" id="Path-24" stroke="#000000" stroke-linecap="round" stroke-linejoin="round"></path>
                                <path d="M238.751073,214.79989 C228.065942,199.920763 214.438374,174.675192 197.868372,139.063176" id="Path-25" stroke="#000000"></path>
                                <path d="M284.022766,176.931533 C294.705416,158.287513 301.563442,145.664727 304.596846,139.063176 C309.146952,129.16085 312.717973,119.962237 308.108929,116.432213 C303.499884,112.902189 294.098891,121.815788 290.656159,124.791177 C287.213427,127.766566 253.886259,165.798293 240.953614,192.888132" id="Path-26" stroke="#000000"></path>
                                <path d="M248.014529,204.884684 C269.356988,170.889945 289.388455,141.405788 308.108929,116.432213" id="Path-27" stroke="#000000"></path>
                                <path d="M278.98326,138.018372 C278.806983,121.627827 278.200025,111.317678 277.162386,107.087924 C275.605928,100.743294 272.817961,91.788697 265.978025,95.668976 C259.138088,99.5492549 233.034041,132.486696 234.248995,182.426079" id="Path-28" stroke="#000000"></path>
                                <path d="M240.953614,192.888132 C249.824078,151.493199 259.424925,118.772767 269.756157,94.7268352" id="Path-29" stroke="#000000"></path>
                                <path d="M239.207297,142.459329 C235.128713,127.037079 230.342214,117.184699 224.847801,112.902189 C216.606181,106.478424 214.277318,118.617793 214.277318,122.215522 C214.277318,125.813252 216.277353,145.957454 220.628293,160.658448" id="Path-30" stroke="#000000" stroke-linecap="round" stroke-linejoin="round"></path>
                                <line x1="243.650189" y1="233.956149" x2="243.650189" y2="343.143582" id="Line-3-Copy-18" stroke="#000000" stroke-linecap="round" stroke-linejoin="round"></line>
                                <line x1="253.051383" y1="230.915557" x2="253.051383" y2="343.143582" id="Line-3-Copy-18" stroke="#000000" stroke-linecap="round" stroke-linejoin="round"></line>
                                <path d="M0.408916937,145.724607 C31.1933044,147.046236 62.5319903,151.249443 94.4249748,158.334229" id="Path-31" stroke="#000000" stroke-linecap="round" stroke-linejoin="round"></path>
                                <path d="M132.310493,167.786259 C143.419682,170.915177 154.729272,174.52732 166.239263,178.622687" id="Path-32" stroke="#000000"></path>
                                <line x1="179.221008" y1="183.387594" x2="215.446607" y2="197.055408" id="Path-33" stroke="#000000"></line>
                                <path d="M74.4286963,154.253142 C102.85002,144.00414 124.295314,137.385636 138.764579,134.39763" id="Path-34" stroke="#000000"></path>
                                <path d="M148.287808,132.56924 C170.717029,128.46818 192.850716,126.748977 214.688869,127.411628" id="Path-34" stroke="#000000" stroke-linecap="round" stroke-linejoin="round"></path>
                                <path d="M234.799295,128.376195 C237.745142,128.600972 240.69544,128.862524 243.650189,129.16085" id="Path-34" stroke="#000000"></path>
                                <polyline id="Path-35" stroke="#000000" stroke-linecap="round" stroke-linejoin="round" points="18.0215322 146.68824 18.0215322 122.303383 31.9911854 122.303383"></polyline>
                                <line x1="18.0215322" y1="122.303383" x2="31.9911854" y2="131.616716" id="Path-36" stroke="#000000" stroke-linecap="round" stroke-linejoin="round"></line>
                                <polyline id="Path-37" stroke="#000000" stroke-linecap="round" stroke-linejoin="round" points="31.9911854 148.147902 31.9911854 117.602786 83.8298904 117.602786"></polyline>
                                <line x1="65.0275023" y1="117.602786" x2="65.0275023" y2="152.029418" id="Path-38" stroke="#000000"></line>
                                <rect id="Rectangle" stroke="#000000" stroke-linejoin="round" x="76.2620763" y="123.411116" width="15.1356281" height="14.1756951"></rect>
                                <polyline id="Rectangle-Copy-3" stroke="#000000" stroke-linejoin="round" transform="translate(126.427088, 117.602786) rotate(-270.000000) translate(-126.427088, -117.602786) " points="121.726491 112.902189 131.127685 112.902189 131.127685 122.303383 125.362423 122.303383"></polyline>
                                <rect id="Rectangle" stroke="#000000" stroke-linejoin="round" x="76.2620763" y="127.574836" width="10.6263054" height="10.0119743"></rect>
                                <line x1="91.3977044" y1="123.411116" x2="86.8883817" y2="127.574836" id="Line-6" stroke="#000000" stroke-linecap="round" stroke-linejoin="round"></line>
                                <line x1="102.632278" y1="119.82651" x2="102.632278" y2="144.325386" id="Path-38-Copy" stroke="#000000"></line>
                                <line x1="112.033472" y1="112.814328" x2="112.033472" y2="141.01791" id="Path-38-Copy-2" stroke="#000000"></line>
                                <polyline id="Path-39" stroke="#000000" stroke-linecap="round" stroke-linejoin="round" points="31.9911854 117.602786 46.2251142 103.413134 78.884675 103.413134 85.2850266 110.50796"></polyline>
                                <line x1="40.4288141" y1="117.476934" x2="54.305644" y2="103.413134" id="Path-40" stroke="#000000" stroke-linecap="round" stroke-linejoin="round"></line>
                                <line x1="48.6218244" y1="117.476934" x2="62.4986543" y2="103.413134" id="Path-40-Copy" stroke="#000000" stroke-linecap="round" stroke-linejoin="round"></line>
                                <line x1="56.8148347" y1="117.476934" x2="70.6916647" y2="103.413134" id="Path-40-Copy-2" stroke="#000000" stroke-linecap="round" stroke-linejoin="round"></line>
                                <line x1="65.0078451" y1="117.476934" x2="78.884675" y2="103.413134" id="Path-40-Copy-3" stroke="#000000" stroke-linecap="round" stroke-linejoin="round"></line>
                                <polyline id="Path-41" stroke="#000000" stroke-linecap="round" stroke-linejoin="round" points="36.8239202 112.814328 36.8239202 98.1688929 69.7530254 80.3981701 69.7530254 103.413134"></polyline>
                                <line x1="69.7530254" y1="80.3981701" x2="112.033472" y2="80.3981701" id="Path-42" stroke="#000000"></line>
                                <path d="M120.280731,50.7126548 L12.8529679,50.7126548 C9.60533105,50.7641928 7.98151262,49.5294661 7.98151262,47.0084747 C7.98151262,44.4874833 9.60533105,43.301512 12.8529679,43.4505608 L21.2921171,43.4505608 C23.3059425,43.5328874 25.1212031,42.8198541 26.7378986,41.3114608 C28.3545942,39.8030674 30.5737368,39.1752455 33.3953265,39.4279948 L43.4016,39.4279948 C44.6108289,39.4693417 45.8172236,38.9798482 47.020784,37.9595144 C48.8261246,36.4290137 51.312688,33.6678604 58.2669631,33.6678604 C62.9031464,33.6678604 65.1044499,33.6678604 64.8708735,33.6678604 C66.3290172,33.7397173 67.7476479,32.9732165 69.1267658,31.3683582 C71.1954425,28.9610707 77.2784325,23.3562371 87.2189345,23.3562371 C93.8459357,23.3562371 99.8735743,25.9102393 105.30185,31.0182436 C106.435721,32.1994634 107.269744,33.082669 107.803919,33.6678604 C108.605181,34.5456476 109.996886,34.6736895 111.708196,34.6736895 C112.849069,34.6736895 116.262769,34.6736895 121.949296,34.6736895 C127.104382,34.6736895 129.681925,37.5993133 129.681925,43.4505608 C129.681925,48.2919568 126.548194,50.7126548 120.280731,50.7126548 Z" id="Path-43" stroke="#000000" stroke-linejoin="round"></path>
                                <path d="M197.713085,21.0335619 L130.363732,21.0335619 C128.024721,20.9122247 126.855215,19.5038159 126.855215,16.8083356 C126.855215,14.1128552 128.639405,12.9137742 132.207785,13.2110925 C134.324882,13.5207407 136.375846,13.1774655 138.360676,12.1812671 C141.337922,10.6869695 142.028116,8.71685052 145.921276,7.49367019 C149.814436,6.27048985 153.220006,8.71685052 156.926536,7.49367019 C160.633067,6.27048985 165.434575,0.247482627 172.709766,1.16465771 C179.984957,2.08183279 180.609619,2.6196813 186.770896,9.71400843 C188.66408,11.3588476 190.961074,12.1812671 193.661878,12.1812671 C196.362683,12.1812671 197.913586,12.1812671 198.314587,12.1812671 C201.214632,12.1812671 202.664654,13.7236233 202.664654,16.8083356 C202.664654,19.1871621 201.014131,20.5955709 197.713085,21.0335619 Z" id="Path-44" stroke="#000000"></path>
                                <path d="M263.385406,65.5935634 L176.732871,65.5935634 C173.72347,65.4374493 172.218769,63.6253727 172.218769,60.1573334 C172.218769,56.6892941 174.51433,55.1465412 179.105453,55.5290747 C181.829337,55.927472 184.468133,55.4858098 187.021841,54.2040883 C190.852404,52.2815059 191.740416,49.7467258 196.749405,48.1729664 C201.758394,46.599207 206.140043,49.7467258 210.908913,48.1729664 C215.677782,46.599207 221.855464,38.8499293 231.215817,40.0299785 C240.57617,41.2100276 241.379869,41.9020303 249.307046,51.0296818 C251.74284,53.1459528 254.698182,54.2040883 258.173071,54.2040883 C261.647961,54.2040883 263.643372,54.2040883 264.159306,54.2040883 C267.89054,54.2040883 269.756157,56.1885033 269.756157,60.1573334 C269.756157,63.2179619 267.632573,65.0300385 263.385406,65.5935634 Z" id="Path-44-Copy" stroke="#000000"></path>
                                <line x1="129.033926" y1="161.537193" x2="126.855215" y2="161.537193" id="Line-3-Copy-14" stroke="#000000" stroke-linecap="round" stroke-linejoin="round"></line>
                            </g>
                            <g id="Eyes" transform="translate(119.376193, 176.012304)" fill="#000000">
                                <circle id="Oval" cx="1.07660584" cy="1.17514925" r="1"></circle>
                                <circle id="Oval-Copy-2" cx="9.84551833" cy="1.17514925" r="1"></circle>
                            </g>
                        </g>
                    </g>
                </g>
            </g>
        </g>
    </g>
</svg>