<?xml version="1.0" encoding="UTF-8"?>
<svg width="24px" height="24px" viewBox="0 0 24 24" version="1.1" xmlns="http://www.w3.org/2000/svg" xmlns:xlink="http://www.w3.org/1999/xlink">
    <title>15613341-BC4E-4E5A-9F02-36EC045F3435</title>
    <defs>
        <filter id="filter-1">
            <feColorMatrix in="SourceGraphic" type="matrix" values="0 0 0 0 1.000000 0 0 0 0 1.000000 0 0 0 0 1.000000 0 0 0 1.000000 0"></feColorMatrix>
        </filter>
    </defs>
    <g id="Desktop" stroke="none" stroke-width="1" fill="none" fill-rule="evenodd">
        <g id="02---Login" transform="translate(-712.000000, -503.000000)">
            <g id="3-Icons/1-General/Lock-/2-Filled" transform="translate(600.000000, 491.000000)" filter="url(#filter-1)">
                <g transform="translate(112.000000, 12.000000)">
                    <rect id="BG" fill-opacity="0.01" fill="#D8D8D8" x="0" y="0" width="24" height="24"></rect>
                    <path d="M7.5,10 L7.5,7.52699 C7.5,5.02998 9.5116,3 12,3 C14.4884,3 16.5,5.02998 16.5,7.52699 L16.5,10 L17,10 C18.1046,10 19,10.89543 19,12 L19,19 C19,20.1046 18.1046,21 17,21 L7,21 C5.8954,21 5,20.1046 5,19 L5,12 C5,10.89543 5.8954,10 7,10 L7.5,10 Z M8.5,7.52699 C8.5,5.57591 10.0702,4 12,4 C13.9298,4 15.5,5.57591 15.5,7.52699 L15.5,10 L8.5,10 L8.5,7.52699 Z M11.5,14.5 C11.5,14.2239 11.7239,14 12,14 C12.2761,14 12.5,14.2239 12.5,14.5 L12.5,17.5 C12.5,17.7761 12.2761,18 12,18 C11.7239,18 11.5,17.7761 11.5,17.5 L11.5,14.5 Z" id="Shape" fill="#000000"></path>
                </g>
            </g>
        </g>
    </g>
</svg>