<?xml version="1.0" encoding="UTF-8"?>
<svg width="24px" height="24px" viewBox="0 0 24 24" version="1.1" xmlns="http://www.w3.org/2000/svg" xmlns:xlink="http://www.w3.org/1999/xlink">
    <title>76A826C5-3CF4-43B5-9EBC-6AF40F17F841</title>
    <g id="Desktop" stroke="none" stroke-width="1" fill="none" fill-rule="evenodd">
        <g id="12---Select-account---Selected-state" transform="translate(-296.000000, -529.000000)">
            <g id="Group-2" transform="translate(280.000000, 513.000000)">
                <g id="💎-Icone" transform="translate(16.000000, 16.000000)">
                    <rect id="BG" fill-opacity="0.01" fill="#D8D8D8" x="0" y="0" width="24" height="24"></rect>
                    <path d="M3.83490135,21 C2.73030135,21 1.80920135,20.091 2.07990135,19.02 C2.36100135,17.908 2.87700135,16.885 3.59230135,16.05 C4.71750135,14.737 6.24360135,14 7.83490135,14 C9.42620135,14 10.9523014,14.737 12.0775014,16.05 C13.2028014,17.363 13.8349014,19.143 13.8349014,21 L3.83490135,21 Z" id="Path" fill="#F7738E" fill-rule="nonzero"></path>
                    <path d="M9.83490135,12 C11.9566014,12 13.9915014,12.948 15.4917014,14.636 C16.5685014,15.847 17.3066014,17.368 17.6375014,19.013 C17.8459274,20.048913 17.0170015,20.9210529 15.9778318,20.9949329 L15.8349014,21 L3.83490135,21 C2.73030135,21 1.81440135,20.096 2.03230135,19.013 C2.36320135,17.368 3.10130135,15.847 4.17800135,14.636 C5.67830135,12.948 7.71320135,12 9.83490135,12 Z M9.83490135,13 C8.01890135,13 6.24980135,13.811 4.92540135,15.3 C3.97340135,16.371 3.31080135,17.728 3.01260135,19.21 C2.97300135,19.407 3.02860135,19.581 3.16620135,19.728 C3.31300135,19.884 3.55270135,20 3.83490135,20 L15.8349014,20 C16.1171014,20 16.3568014,19.884 16.5036014,19.728 C16.6412014,19.581 16.6968014,19.407 16.6572014,19.21 C16.3590014,17.728 15.6963014,16.371 14.7443014,15.3 C13.4200014,13.811 11.6508014,13 9.83490135,13 Z M15.2408014,13.003 C16.8244014,13.056 18.3334014,13.786 19.4569014,15.05 C20.1990014,15.885 20.7343014,16.909 21.0257014,18.022 C21.293843,19.0455 20.4586156,19.9238924 19.4163496,19.9953148 L19.2793014,20 L18.5883014,20 C18.6856014,19.639 18.7033014,19.24 18.6179014,18.816 C18.2542014,17.008 17.4406014,15.323 16.2392014,13.972 C15.9269014,13.62 15.5931014,13.297 15.2408014,13.003 Z M15.0571014,6 C16.7753014,6 18.1682014,7.393 18.1682014,9.111 C18.1682014,10.829 16.7753014,12.222 15.0571014,12.222 C14.1020014,12.222 13.2474014,11.792 12.6767014,11.114 C13.9807014,10.212 14.8349014,8.706 14.8349014,7 C14.8349014,6.663 14.8016014,6.334 14.7381014,6.016 C14.8430014,6.005 14.9494014,6 15.0571014,6 Z M9.83490135,3 C12.0440014,3 13.8349014,4.791 13.8349014,7 C13.8349014,9.209 12.0440014,11 9.83490135,11 C7.62580135,11 5.83490135,9.209 5.83490135,7 C5.83490135,4.791 7.62580135,3 9.83490135,3 Z M9.83490135,4 C8.17800135,4 6.83490135,5.343 6.83490135,7 C6.83490135,8.657 8.17800135,10 9.83490135,10 C11.4918014,10 12.8349014,8.657 12.8349014,7 C12.8349014,5.343 11.4918014,4 9.83490135,4 Z" id="Shape" fill="#000000"></path>
                </g>
            </g>
        </g>
    </g>
</svg>