<?xml version="1.0" encoding="UTF-8"?>
<svg width="76px" height="30px" viewBox="0 0 76 30" version="1.1" xmlns="http://www.w3.org/2000/svg" xmlns:xlink="http://www.w3.org/1999/xlink">
    <title>F77E867E-BBCD-4560-999F-F7E66F4D3E7A</title>
    <g id="Desktop" stroke="none" stroke-width="1" fill="none" fill-rule="evenodd">
        <g id="02---Login" transform="translate(-601.000000, -41.000000)">
            <g id="2-Logo/1-New" transform="translate(601.000000, 41.000000)">
                <path d="M8.72256319,20.625 C10.8458526,25.8950199 16.3977251,29.4074366 22.6109931,29.4141322 C23.7337323,29.4152482 24.8380994,29.3025384 25.9165123,29.0793507 C23.8305503,29.690606 21.64952,30 19.4130819,30 C12.0203412,29.9989044 4.92698548,26.4586639 1.1560586,20.9347519 L0.95,20.625837 L8.72256319,20.625 Z M35.22125,22.13347 C32.6159118,26.1419213 28.0074318,28.5194285 22.8375823,28.5194285 C18.5434693,28.5194285 14.6462519,26.9032704 11.9324309,24.041446 C14.1586623,25.7825891 16.9316824,26.7269521 19.8779251,26.7269521 C23.6674798,26.7269521 27.1661136,25.1565525 29.5461013,22.403313 L29.7729028,22.133191 L35.22125,22.13347 Z M15.9702337,6.07223899 C15.0633822,7.65466889 14.3357726,9.37361175 14.1075193,11.0910804 L14.0781125,11.334327 L14.0781125,11.334327 C13.5389868,15.9577821 15.1462816,19.3331608 17.249572,21.5786957 C18.2964562,22.699989 19.4559266,23.5547429 20.5453806,24.1933758 L20.864375,24.375 L20.5406195,24.3661547 L20.5406195,24.3661547 C17.8064702,24.2375902 15.8406155,23.4989451 14.8779655,23.0486193 L14.758111,22.9915901 C9.42650775,20.4668375 7.08600195,14.8350146 7.47529273,10.5226204 C9.61163092,8.79630641 13.6885416,7.00601121 15.9702337,6.07223899 Z M18.5882454,5.29355493 C23.8488809,3.42365174 29.2589256,2.58806271 34.295,2.86403707 L33.8511035,3.10070307 C32.4177491,3.88580157 29.735002,5.55012201 27.3409657,8.10537229 L27.0429852,8.42697227 C26.7278242,8.74013935 23.3092689,12.2207494 22.6724891,16.8564949 L22.6342228,17.1672338 C22.6151366,17.3134766 22.5999273,17.4582452 22.5882966,17.6030138 C22.5560887,17.9937564 22.5510562,18.3780307 22.5720668,18.7544687 L22.6017166,19.1282439 C22.7869125,20.9185391 23.5700434,22.491534 24.887588,23.7475711 C23.3779884,23.2478099 21.270752,22.275413 19.5133299,20.6346039 C17.4659006,18.7135765 15.8660243,15.9591482 16.0839269,11.8917007 L16.1097226,11.5065161 C16.1138977,11.4342793 16.121055,11.3605682 16.1285106,11.2842035 C16.310426,9.35267779 17.3545011,7.195891 18.5882454,5.29355493 Z M21.5905245,0.707138647 C22.2481584,-0.57216008 27.0822321,-0.159524473 30.59,2.30441707 C24.8952509,2.52260697 19.475,4.6875 19.475,4.6875 C20.2412713,3.22691113 20.7545394,1.94825414 21.5905245,0.707138647 Z" id="Shape" fill="#DC143D"></path>
                <path d="M69.7587452,6.5625 C71.508625,6.5625 72.37498,6.76551312 73.1511199,7.37144831 C73.912127,7.93392502 74.4190771,9.10202651 74.4190771,10.2257383 C74.4190771,11.2839519 73.9746955,12.3191947 73.3007022,12.881361 C72.899682,13.2181641 72.6482441,13.3314665 71.8895651,13.5108879 L72.2858247,13.6190941 C72.9412646,13.8081137 73.2389172,13.9617098 73.7218025,14.3446696 C74.544214,14.9943737 75.05,16.1419876 75.05,17.4246332 C75.05,18.7274559 74.6085286,19.7620778 73.6569059,20.5275677 C72.8056325,21.2246561 71.8767654,21.5260598 70.3661363,21.559107 L70.0759528,21.5621896 L64.0286381,21.5625 L64.0038734,21.5468301 C63.9544685,21.5115149 63.8625973,21.4209496 64.0362045,21.3209951 L64.0816849,21.2948133 C64.1504602,21.2509426 64.2788597,21.1513543 64.3351588,20.9916529 L64.3592324,20.8885834 L64.3592324,7.20785822 C64.3394433,6.95735121 64.0388237,6.80059031 64.0388237,6.80059031 C63.8884654,6.71325949 63.9336699,6.63655185 63.9805127,6.59511684 L64.0277651,6.5625 L69.7587452,6.5625 Z M35.6511998,6.5625 C36.1307579,6.5625 36.2714858,6.65666123 36.4157095,7.09523936 L40.0737627,19.1766302 L43.5388037,7.46209025 L43.6275005,7.18130165 C43.7924641,6.68671947 43.8979089,6.57794914 44.2149235,6.56414176 L44.2987417,6.5625 L47.0013577,6.5625 C47.1226319,6.5625 47.2278671,6.66079469 47.2554593,6.78837904 L47.2625,6.85429256 L47.2625,21.2514615 C47.2547624,21.4904831 47.0967397,21.5458524 47.0268895,21.5586575 L46.9941728,21.5625 L44.9202329,21.5621896 C44.8205132,21.5625 44.7011,21.4806194 44.668843,21.3420935 L44.6604722,21.2682241 L44.6604722,10.1801069 L41.2377114,21.1347445 L41.2377114,21.1347445 C41.1355266,21.407912 40.9619435,21.5331828 40.656408,21.5576483 L40.5355287,21.5621896 L38.9139591,21.5621896 C38.5877977,21.5621896 38.4691289,21.4787189 38.3031841,21.0312614 L38.2150925,20.7759018 L34.8498107,10.1801069 L34.8498107,21.2682241 C34.8498107,21.4031227 34.7608852,21.5227412 34.6482927,21.5541649 L34.5903264,21.5621896 L32.5368357,21.5625 C32.5368357,21.5625 32.4434324,21.5106603 32.4439851,21.4411267 C32.4441923,21.4141204 32.4577676,21.3836218 32.49497,21.3515955 L32.5846945,21.292233 C32.6515345,21.2471982 32.7759096,21.145112 32.8277451,20.9821852 L32.8491011,20.8770979 L32.8491011,7.26311256 C32.8278229,6.94959077 32.5404281,6.80183198 32.5404281,6.80183198 C32.3972834,6.71491505 32.4408225,6.63751759 32.4857535,6.59557672 L32.5310325,6.5625 L35.6511998,6.5625 Z M56.6676752,6.5625 C58.1139065,6.5625 59.6214802,6.79926853 60.5437321,7.16754199 C60.9369885,7.32400603 61.1185229,7.49665323 61.1508972,7.7811333 L61.15625,7.88023315 L61.15625,9.88322333 L61.139819,9.90925967 C61.1081468,9.95376559 61.0343206,10.03098 60.9504657,9.93660062 C60.9160173,9.89753679 60.8891233,9.84654508 60.8891233,9.84654508 C60.8323135,9.74873642 60.7585817,9.68015108 60.6966349,9.63154494 L60.6581448,9.60582544 L60.6581448,9.60582544 L60.6099094,9.57697487 C60.1282352,9.30770285 59.0014078,8.73904091 57.1931654,8.72174548 C54.0828315,8.69192576 51.9609268,10.8610117 51.9609268,13.9715061 C51.9609268,14.2005215 51.9742227,14.4208892 51.9944688,14.6376785 C52.3610125,17.0605302 54.172881,18.9281389 57.2862367,18.9833054 C58.4334962,19.0036746 59.4993925,18.6810288 60.3838655,18.1227874 L60.69138,17.9174474 C60.8262836,17.8358854 61.0717448,17.7273487 61.1374023,17.9667263 L61.1514151,18.049352 L61.1514151,18.5547961 L61.15625,18.6159265 L61.1556456,20.1249904 L61.1556456,20.1249904 L61.1507105,20.2065775 C61.1449255,20.2883646 61.1143992,20.4657514 60.9736258,20.5762536 L60.8791514,20.6331749 L60.8791514,20.6331749 L60.8407746,20.6538058 L60.8407746,20.6538058 L60.7839648,20.6746796 L60.7839648,20.6746796 C58.4535563,21.6837787 56.4310687,21.6700616 55.0268404,21.421067 C54.4856368,21.3310115 53.9958038,21.1944372 53.5573413,21.026254 C53.3266776,20.9402738 53.1551907,20.8644406 53.0549468,20.8153209 L53.0034462,20.7891873 C52.2458821,20.4265795 51.6584451,19.9819676 51.2308611,19.5871546 C49.8553399,18.3699139 49.115,16.5586645 49.115,14.2288502 C49.115,9.60709278 52.114434,6.5625 56.6676752,6.5625 Z M69.6944306,8.40420771 L67.0394907,8.40420771 L67.0394907,19.6962693 L69.6327352,19.6962693 C70.6853405,19.6962693 71.1719194,19.5360938 71.6128088,19.1316197 C72.0536982,18.7054163 72.3083373,17.9871099 72.3083373,17.2436597 C72.3083373,15.7275341 70.9320587,14.9333351 69.4401007,14.8765853 L69.26751,14.8733108 L68.7014837,14.8733108 C68.5061149,14.8772428 68.4571595,14.7499715 68.4462302,14.6646872 L68.4448075,12.9335111 C68.4595402,12.8042998 68.5496415,12.7592407 68.6151457,12.7436168 L68.6848958,12.7354647 L68.6848958,12.7308084 L68.8661988,12.7308084 C70.2985801,12.7308084 71.6774144,12.1158711 71.6774144,10.6777063 C71.6774144,9.36412695 70.9641025,8.48338122 69.8489574,8.40927777 L69.6944306,8.40420771 Z" id="Shape" fill="#55585A"></path>
            </g>
        </g>
    </g>
</svg>