<?xml version="1.0" encoding="UTF-8"?>
<svg width="24px" height="24px" viewBox="0 0 24 24" version="1.1" xmlns="http://www.w3.org/2000/svg" xmlns:xlink="http://www.w3.org/1999/xlink">
    <title>DA3A7C6D-EE39-4EFE-BEA1-6C70DA54674E</title>
    <g id="Desktop" stroke="none" stroke-width="1" fill="none" fill-rule="evenodd">
        <g id="12---Select-account---Selected-state" transform="translate(-296.000000, -665.000000)">
            <g id="Group" transform="translate(280.000000, 649.000000)">
                <g id="💎-Icone" transform="translate(16.000000, 16.000000)">
                    <rect id="BG" fill-opacity="0.01" fill="#D8D8D8" x="0" y="0" width="24" height="24"></rect>
                    <path d="M16.5,12.5 C16.5,15.5376 14.2621,19.0567 10.5,18 C7.4624,18 5,15.5376 5,12.5 C5,9.4624 7.4653,7.132 10.5,7 C13.6756,6.8619 16.5,9.4624 16.5,12.5 Z" id="Path" fill="#F7738E" fill-rule="nonzero"></path>
                    <path d="M12,5 C14.9454,5 17.4659,6.8191 18.4993,9.3952 C19.3964,9.915 20,10.8868 20,12 C20,13.1132 19.3964,14.085 18.4993,14.6048 C17.4659,17.1809 14.9454,19 12,19 C9.0546,19 6.5341,17.1809 5.5007,14.6048 C4.6036,14.0851 4,13.1132 4,12 C4,10.8868 4.6036,9.9149 5.5007,9.3952 C6.5341,6.8191 9.0546,5 12,5 Z M12,6 C9.86192308,6 7.98503328,7.1183432 6.92246416,8.80189605 L6.7989,9.0066 C6.5935,9.358 6.4264,9.7313 6.2983,10.1224 C5.5398,10.4073 5,11.1404 5,12 C5,12.8596 5.5398,13.5927 6.2983,13.8776 C6.394375,14.170925 6.5123875,14.4542375 6.65035469,14.7256813 L6.7949,14.9931 C7.8353,16.7904 9.7764,18 12,18 C14.1380769,18 16.0149667,16.8816568 17.0775358,15.1981039 L17.2011,14.9934 C17.4065,14.642 17.5736,14.2687 17.7017,13.8776 C18.4602,13.5927 19,12.8596 19,12 C19,11.1404 18.4602,10.4073 17.7017,10.1224 C17.605625,9.829075 17.4876125,9.5457625 17.3496453,9.27431875 L17.2051,9.0069 C16.1647,7.2096 14.2236,6 12,6 Z M15,13.5 C15.2761,13.5 15.5,13.7239 15.5,14 C15.5,14.7434 15.0573,15.3911 14.3987,15.8302 C13.7403,16.2692 12.8766,16.5 12,16.5 C11.1234,16.5 10.2597,16.2692 9.6013,15.8302 C8.9427,15.3911 8.5,14.7434 8.5,14 C8.5,13.7239 8.7239,13.5 9,13.5 C9.2761,13.5 9.5,13.7239 9.5,14 C9.5,14.3174 9.6895,14.6872 10.156,14.9982 C10.6228,15.3094 11.2853,15.5 12,15.5 C12.7147,15.5 13.3772,15.3094 13.844,14.9982 C14.2586667,14.7217556 14.4544691,14.3988519 14.4928615,14.1075882 L14.5,14 C14.5,13.7239 14.7239,13.5 15,13.5 Z M10,10 C10.5523,10 11,10.4477 11,11 C11,11.5523 10.5523,12 10,12 C9.4477,12 9,11.5523 9,11 C9,10.4477 9.4477,10 10,10 Z M14,10 C14.5523,10 15,10.4477 15,11 C15,11.5523 14.5523,12 14,12 C13.4477,12 13,11.5523 13,11 C13,10.4477 13.4477,10 14,10 Z" id="Shape" fill="#000000" fill-rule="nonzero"></path>
                </g>
            </g>
        </g>
    </g>
</svg>