<?xml version="1.0" encoding="UTF-8"?>
<svg width="24px" height="24px" viewBox="0 0 24 24" version="1.1" xmlns="http://www.w3.org/2000/svg" xmlns:xlink="http://www.w3.org/1999/xlink">
    <title>9329D301-0965-4195-A33F-F5286E947943</title>
    <g id="Desktop" stroke="none" stroke-width="1" fill="none" fill-rule="evenodd">
        <g id="12---Select-account---Selected-state" transform="translate(-296.000000, -257.000000)">
            <g id="Group-4" transform="translate(280.000000, 241.000000)">
                <g id="💎-Icone" transform="translate(16.000000, 16.000000)">
                    <rect id="BG" fill-opacity="0.01" fill="#D8D8D8" x="0" y="0" width="24" height="24"></rect>
                    <path d="M15,13.328918 C19,9.694468 19,4.328918 19,4.328918 C19,4.328918 11.6166,3.136208 8.1166,8.636218 C4.6166,14.136218 11.0001,16.963318 15,13.328918 Z" id="Path" fill="#F7738E" fill-rule="nonzero"></path>
                    <path d="M7.7788,14.977218 C6.2436,13.323318 5.8863,10.719068 7.5781,8.060478 C9.4307,5.149238 12.8319,3.652638 15.6771,2.877428 C17.1114,2.486618 18.432,2.271703 19.3937,2.15432 C19.875,2.09557 20.2677,2.061103 20.5412,2.041277 C20.8479,2.019055 21.1548,2.010134 21.462,2 C21.4796,2.293451 21.4992,2.586338 21.5031,2.880358 C21.5064,3.127848 21.5044205,3.483218 21.485,3.920718 C21.4457,4.794748 21.3348,6.001758 21.0473,7.334068 C20.475,9.985648 19.1859,13.209118 16.2867,15.238518 C13.4907,17.195718 10.4957,17.065018 8.5395,15.649318 C7.578,17.235118 7,18.874018 7,20.328918 L12.5,20.328918 C12.7761,20.328918 13,20.552818 13,20.828918 C13,21.105018 12.7761,21.328918 12.5,21.328918 L3.5,21.328918 C3.2239,21.328918 3,21.105018 3,20.828918 C3,20.552818 3.2239,20.328918 3.5,20.328918 L6,20.328918 C6,18.587218 6.6993,16.712518 7.7788,14.977218 Z M9.087,14.810718 C9.1884,14.665918 9.2928,14.521918 9.4,14.378918 C10.8614,12.430418 12.804,10.735938 14.7236,9.776128 C14.9706,9.652638 15.0707,9.352298 14.9472,9.105308 C14.8237,8.858318 14.5234,8.758208 14.2764,8.881708 C12.196,9.921898 10.1386,11.727418 8.6,13.778918 C8.5166,13.890118 8.4346,14.002318 8.354,14.115218 C7.2791,12.805418 7.022,10.796998 8.4218,8.597348 C10.0692,6.008588 13.164,4.598608 15.94,3.842258 C17.3162,3.467278 18.5874,3.260158 19.5148,3.146958 C19.9167,3.097898 20.2531,3.066598 20.5044406,3.046898 C20.5049,3.263788 20.5009,3.544378 20.486,3.875868 C20.4486,4.708978 20.3427,5.858368 20.0698,7.123088 C19.521,9.665578 18.3141,12.598718 15.7132,14.419318 C13.201,16.177818 10.6562,15.971718 9.087,14.810718 Z" id="Shape" fill="#000000"></path>
                </g>
            </g>
        </g>
    </g>
</svg>