<?xml version="1.0" encoding="UTF-8"?>
<svg width="463px" height="278px" viewBox="0 0 463 278" version="1.1" xmlns="http://www.w3.org/2000/svg" xmlns:xlink="http://www.w3.org/1999/xlink">
    <title>0D1166DB-4678-4178-85B1-8CA33553E603</title>
    <g id="Desktop" stroke="none" stroke-width="1" fill="none" fill-rule="evenodd">
        <g id="24---Session-time-out" transform="translate(-280.000000, -48.000000)">
            <g id="Group-4" transform="translate(280.000000, 48.000000)">
                <g id="Group" transform="translate(52.000000, 63.000000)">
                    <g id="Group-6" stroke-linecap="round" stroke-linejoin="round" transform="translate(176.339138, 54.241200) rotate(51.000000) translate(-176.339138, -54.241200) translate(143.839138, 9.241200)" stroke="#001F4F">
                        <rect id="Rectangle" x="0.332728196" y="-3.67327696e-14" width="63.8953437" height="7.73417556" rx="3.86708778"></rect>
                        <rect id="Rectangle" x="0.332728196" y="82.1756154" width="63.8953437" height="7.73417556" rx="3.86708778"></rect>
                        <path d="M5.55004218,8.01481322 C5.49334046,13.9265355 7.57787508,19.8341667 11.8036461,25.7377067 C18.1423026,34.5930168 21.8080458,35.2725423 24.4781318,37.5580043 C27.1482178,39.8434664 29.0426996,41.3054258 29.0426996,45.1144506 C29.0426996,48.9234754 27.1482178,50.3854347 24.4781318,52.6708968 C21.8080458,54.9563589 18.1423026,55.6358844 11.8036461,64.4911945 C7.57787508,70.3947345 5.49334046,76.3023656 5.55004218,82.214088" id="Path-2"></path>
                        <path d="M35.4659374,8.01481322 C35.4092357,13.9265355 37.4937703,19.8341667 41.7195413,25.7377067 C48.0581978,34.5930168 51.723941,35.2725423 54.394027,37.5580043 C57.0641131,39.8434664 58.9585948,41.3054258 58.9585948,45.1144506 C58.9585948,48.9234754 57.0641131,50.3854347 54.394027,52.6708968 C51.723941,54.9563589 48.0581978,55.6358844 41.7195413,64.4911945 C37.4937703,70.3947345 35.4092357,76.3023656 35.4659374,82.214088" id="Path-2" transform="translate(47.211703, 45.114451) scale(-1, 1) translate(-47.211703, -45.114451) "></path>
                    </g>
                    <path d="M180.274832,163.655785 C179.742043,107.084412 179.470321,75.9623082 179.459665,70.2894751 L179.459613,70.2774358 C179.141478,67.0255906 177.767539,63.9490649 175.415265,61.8738982 C175.195782,61.6803128 174.977637,61.5055785 174.766184,61.3562205 C172.642282,59.8684411 168.395147,57.8376077 169.144602,56.1185409 C169.894057,54.3994742 173.053813,56.1185409 173.053813,56.1185409 C173.243971,56.1984473 173.431733,56.2779215 173.617098,56.3569635 C172.250609,55.3782596 169.613939,53.279909 170.268784,52.0795691 C170.858622,50.9974969 173.291356,51.8514623 174.812937,52.522236 L174.910018,52.5658136 L174.864399,52.5418817 C173.174302,51.653537 170.383973,49.9024741 171.11756,48.337769 L171.191551,48.2002171 C172.554622,45.9629678 190.383622,52.0511659 190.383622,66.2587229 L190.383622,66.2587229 L190.383622,163.655785 Z" id="Combined-Shape" fill="#FFFFFF"></path>
                    <path d="M190.383622,47.7488136 L190.383622,145.145876 C190.383622,159.353433 172.554622,165.441631 171.191551,163.204382 C169.829818,160.966472 176.0697,158.277413 176.0697,158.277413 C176.0697,158.277413 171.143372,160.929482 170.268784,159.32503 C169.394197,157.721899 174.390787,154.516959 174.390787,154.516959" id="Border" stroke="#001F4F" stroke-linecap="round" stroke-linejoin="round" transform="translate(180.274832, 105.702300) scale(-1, 1) rotate(-180.000000) translate(-180.274832, -105.702300) "></path>
                    <line x1="0" y1="163.655785" x2="358.918678" y2="163.655785" id="Border" stroke="#001F4F" stroke-linecap="round" stroke-linejoin="round"></line>
                    <path d="M173.053813,162.891756 C173.053813,162.891756 169.894057,164.610823 169.144602,162.891756 C168.395147,161.172689 172.642282,159.141856 174.766184,157.654076 C174.977637,157.504718 175.195782,157.329984 175.415265,157.136399 C178.119995,154.750296 179.531246,151.040273 179.531246,147.262096 L180.274832,55.3545113" id="Border" stroke="#001F4F" stroke-linecap="round" stroke-linejoin="round" transform="translate(174.665925, 109.505148) scale(-1, 1) rotate(-180.000000) translate(-174.665925, -109.505148) "></path>
                    <path d="M240.639608,57.0587474 C239.887961,53.1936638 236.878968,50.1313309 233.040211,49.297969" id="Border" stroke="#DC143D" stroke-linecap="round" stroke-linejoin="round" transform="translate(236.839909, 53.178358) rotate(61.000000) translate(-236.839909, -53.178358) "></path>
                    <path d="M245.786561,58.3478099 C245.034915,54.4827263 242.025921,51.4203934 238.187164,50.5870315" id="Border" stroke="#DC143D" stroke-linecap="round" stroke-linejoin="round" transform="translate(241.986863, 54.467421) rotate(61.000000) translate(-241.986863, -54.467421) "></path>
                    <path d="M117.727827,58.2138906 C116.976277,54.3490353 113.967235,51.2869681 110.128307,50.4537846" id="Border" stroke="#DC143D" stroke-linecap="round" stroke-linejoin="round" transform="translate(113.928067, 54.333838) rotate(243.000000) translate(-113.928067, -54.333838) "></path>
                    <path d="M112.628915,56.7456629 C111.877366,52.8808075 108.868323,49.8187403 105.029395,48.9855569" id="Border" stroke="#DC143D" stroke-linecap="round" stroke-linejoin="round" transform="translate(108.829155, 52.865610) rotate(243.000000) translate(-108.829155, -52.865610) "></path>
                    <path d="M137.539531,56.7870302 C136.123522,57.663662 135.73642,58.58576 136.106087,59.0317173 C136.639819,59.6964951 145.200733,69.9295496 161.788827,89.730881 C167.862895,80.8399451 170.343365,73.3382618 169.230236,67.2258311 C167.560542,58.0571849 165.490434,56.1421673 155.591408,54.9272281 C145.692382,53.7122889 138.95554,55.9103985 137.539531,56.7870302 Z" id="Path-7" fill="#FFC5D1"></path>
                    <path d="M151.087436,64.167089 C158.680862,64.3159393 164.867889,62.420312 164.906548,59.9330869 C164.945206,57.4458619 158.820857,55.3089005 151.227431,55.1600502 C143.634005,55.0111999 137.45301,57.2116578 137.90913,58.9657935 C138.36525,60.7199293 143.49401,64.0182386 151.087436,64.167089 Z" id="Oval" fill="#F10134"></path>
                </g>
            </g>
        </g>
    </g>
</svg>