<?xml version="1.0" encoding="UTF-8"?>
<svg width="463px" height="278px" viewBox="0 0 463 278" version="1.1" xmlns="http://www.w3.org/2000/svg" xmlns:xlink="http://www.w3.org/1999/xlink">
    <title>AA094A2E-8820-4B9B-A8BF-38E6829B4BDA</title>
    <g id="Desktop" stroke="none" stroke-width="1" fill="none" fill-rule="evenodd">
        <g id="23---Something-went-wrong" transform="translate(-280.000000, -48.000000)">
            <g id="_Illustrations/Generic/Something-went-wrong" transform="translate(280.000000, 48.000000)">
                <polygon id="Rectangle" fill="#E9EAEB" points="192.273611 77.9958825 269.878725 77.9958825 309.729497 226.64866 152.422839 226.64866"></polygon>
                <line x1="52.0835795" y1="225.865762" x2="410.918675" y2="225.865762" id="Line" stroke="#001F4F" stroke-linecap="round" stroke-linejoin="round"></line>
                <g id="Office/MCB-St-Jean/Small" transform="translate(231.234725, 168.245637) rotate(-10.000000) translate(-231.234725, -168.245637) translate(187.734725, 136.245637)">
                    <path d="M46.1094144,0.30786881 C58.726519,-0.171105243 70.0138974,7.73916925 73.060212,10.677477 L73.2536202,10.8644976 C76.58328,14.0934541 88.1306633,25.8212104 86.6367348,39.984927 C86.1557799,44.5447899 83.6749701,48.3730734 79.9368503,51.0254862 L80.0205661,51.0249995 C79.762731,53.3156709 79.762731,55.3031446 80.0205661,56.9874207 C80.2784012,58.6716968 80.8064822,60.4762119 81.6048092,62.4009658 L81.6048092,63.6726726 L8.98141036,63.6726726 L8.98141036,61.5987773 C11.153073,59.0316082 12.2389044,56.3649807 12.2389044,53.5988948 L12.2380979,53.2843222 C12.2251521,50.789141 12.0553536,48.8062708 11.6565188,47.2441961 L11.5604081,47.1527944 C2.1613275,38.0781354 -0.00889660265,32.7406281 0.316776758,26.3903207 C0.531721176,22.1991179 2.9320766,18.2937852 7.51784304,14.6743228 L7.6574746,14.5647296 L37.2266993,2.50599249 L37.2288324,2.5097867 C39.7352067,1.17144518 42.6954007,0.437472553 46.1094144,0.30786881 Z" id="Filled" fill="#FFFFFF"></path>
                    <path d="M65.900289,10.4811498 C59.8187246,6.06195327 52.3628855,2.6615575 43.9767328,3.57097567 C35.5905802,4.48039384 29.786258,10.6106739 29.0710345,12.2718223 C28.355811,13.9329708 21.8638089,33.242973 40.9970646,47.7129712 C60.1303202,62.1829693 78.535042,49.7243272 80.0967978,38.7147048 C81.6585535,27.7050825 75.5254061,17.4752851 65.900289,10.4811498 Z" id="Border" stroke="#001F4F" stroke-linecap="round" stroke-linejoin="round"></path>
                    <path d="M60.0582394,54.2624139 C74.7470402,54.9749421 83.9899831,50.022045 85.9542216,39.6806468 C88.8127234,24.6310972 76.718996,13.1265546 73.6726814,10.1882469 C70.6263668,7.24993912 58.726519,-0.171105243 46.1094144,0.30786881 C37.6980114,0.627184846 32.041406,4.61516935 29.1395984,12.2718223" id="Border" stroke="#001F4F" stroke-linecap="round" stroke-linejoin="round"></path>
                    <path d="M37.2266993,2.50599249 L7.6574746,14.5647296 C2.98079161,18.2149188 0.533892332,22.1567825 0.316776758,26.3903207 C-0.00889660265,32.7406281 2.1613275,38.0781354 11.5604081,47.1527944" id="Border" stroke="#001F4F" stroke-linecap="round" stroke-linejoin="round"></path>
                    <path d="M80.0554092,49.8003182 C79.7743453,52.9074438 79.762731,55.3031446 80.0205661,56.9874207 C80.2784012,58.6716968 80.8064822,60.9001141 81.6048092,63.6726726 L8.98141036,63.6726726 C11.153073,59.7229066 12.2389044,56.3649807 12.2389044,53.5988948 C12.2389044,50.8328089 11.9161589,47.604617 11.2706679,43.9143191 L16.9113247,42.876259 C19.9682615,45.9727606 23.396881,48.6039948 27.1971831,50.7699616" id="Border" stroke="#001F4F" stroke-linecap="round" stroke-linejoin="round"></path>
                    <line x1="33.0464618" y1="40.005744" x2="26.0767282" y2="41.1405433" id="Border" stroke="#001F4F" stroke-linecap="round" stroke-linejoin="round"></line>
                    <path d="M16.9113247,42.876259 C18.2540689,47.09272 18.7169808,50.5587889 18.3000604,53.2744658 C17.88314,55.9901427 16.7543759,59.4562116 14.9137683,63.6726726" id="Border" stroke="#001F4F" stroke-linecap="round" stroke-linejoin="round"></path>
                    <path d="M26.0767282,41.1405433 C27.2374487,46.1570846 27.543643,50.2017254 26.9953109,53.2744658 C26.4469789,56.3472062 25.2100091,59.8132751 23.2844015,63.6726726" id="Border" stroke="#001F4F" stroke-linecap="round" stroke-linejoin="round"></path>
                    <path d="M33.0464618,40.005744 C34.5989558,45.1642579 34.9272296,49.5871651 34.0312833,53.2744658 C33.1353369,56.9617664 32.0065729,60.4278354 30.6449912,63.6726726" id="Border" stroke="#001F4F" stroke-linecap="round" stroke-linejoin="round"></path>
                    <path d="M52.996644,53.8997592 C52.4632004,56.0516348 52.8592883,59.3092726 54.1849078,63.6726726" id="Border" stroke="#001F4F" stroke-linecap="round" stroke-linejoin="round"></path>
                    <path d="M66.8555209,54.9749421 C66.5434295,56.793324 67.0150217,59.6925675 68.2702975,63.6726726" id="Border" stroke="#001F4F" stroke-linecap="round" stroke-linejoin="round" transform="translate(67.516302, 59.323807) scale(-1, 1) translate(-67.516302, -59.323807) "></path>
                    <line x1="41.5271134" y1="4.25015036" x2="73.0369414" y2="17.1029433" id="Border" stroke="#001F4F" stroke-linecap="round" stroke-linejoin="round"></line>
                    <line x1="28.968896" y1="13.1184398" x2="79.5069912" y2="29.4877491" id="Border" stroke="#001F4F" stroke-linecap="round" stroke-linejoin="round"></line>
                    <line x1="27.9835664" y1="27.0481007" x2="79.7748454" y2="39.3160811" id="Border" stroke="#001F4F" stroke-linecap="round" stroke-linejoin="round"></line>
                    <line x1="36.556685" y1="43.1353281" x2="73.9671696" y2="48.5336263" id="Border" stroke="#001F4F" stroke-linecap="round" stroke-linejoin="round"></line>
                </g>
                <g id="Sparks" transform="translate(260.841929, 127.535849) rotate(-58.000000) translate(-260.841929, -127.535849) translate(253.125262, 116.596034)" stroke="#DC143D" stroke-linecap="round" stroke-linejoin="round">
                    <line x1="0.404886831" y1="4.45696159" x2="5.26352881" y2="0.405178326" id="Border"></line>
                    <line x1="4.09906473" y1="11.2188832" x2="14.7085098" y2="9.64250941" id="Border"></line>
                    <line x1="2.83420782" y1="19.3555254" x2="10.9319444" y2="20.9762387" id="Border"></line>
                </g>
                <g id="People/UFO" transform="translate(191.987500, 51.837963)">
                    <path d="M39.0886679,0.287037037 C47.8165047,0.287037037 55.1157486,6.40797356 56.9337232,14.5942525 L56.9088638,14.5905846 C69.37332,16.6578329 77.8912247,20.826054 77.8912247,25.6313617 C77.8912247,32.4252926 60.864441,37.9457253 39.7303392,38.0554546 L39.0886679,38.0571193 C17.6586075,38.0571193 0.286111111,32.4939181 0.286111111,25.6313617 C0.286111111,20.8292231 8.79278468,16.663331 21.2438168,14.5946773 C23.0615873,6.40797356 30.3608312,0.287037037 39.0886679,0.287037037 Z" id="Filled" fill="#FFFFFF"></path>
                    <path d="M57.3689836,18.5805135 C57.3689836,8.47730541 49.1846075,0.287037037 39.0886679,0.287037037 C28.9927284,0.287037037 20.8083523,8.47730541 20.8083523,18.5805135 C20.8083523,28.6837215 57.3689836,28.6837215 57.3689836,18.5805135 Z" id="Border" stroke="#001F4F" stroke-linecap="round" stroke-linejoin="round"></path>
                    <path d="M56.9088638,38.0453713 C69.37332,35.978123 77.8912247,31.8099019 77.8912247,27.0045942 C77.8912247,20.1420378 60.5187283,14.5788366 39.0886679,14.5788366 C17.6586075,14.5788366 0.286111111,20.1420378 0.286111111,27.0045942 C0.286111111,31.8190222 8.83637988,35.993943 21.3394859,38.0571193" id="Border" stroke="#001F4F" stroke-linecap="round" stroke-linejoin="round" transform="translate(39.088668, 26.317978) scale(1, -1) translate(-39.088668, -26.317978) "></path>
                    <path d="M49.7862595,15.3251679 C49.0389689,11.4614001 46.0379302,8.4019554 42.2069734,7.57168867" id="Border" stroke="#001F4F" stroke-linecap="round" stroke-linejoin="round"></path>
                    <ellipse id="Border" stroke="#001F4F" stroke-linecap="round" stroke-linejoin="round" cx="14.4080476" cy="26.317978" rx="1.80283382" ry="1.80413176"></ellipse>
                    <ellipse id="Border" stroke="#001F4F" stroke-linecap="round" stroke-linejoin="round" cx="62.9408817" cy="26.317978" rx="1.80283382" ry="1.80413176"></ellipse>
                    <ellipse id="Border" stroke="#001F4F" stroke-linecap="round" stroke-linejoin="round" cx="50.8076732" cy="30.7964261" rx="1.80283382" ry="1.80413176"></ellipse>
                    <ellipse id="Border" stroke="#001F4F" stroke-linecap="round" stroke-linejoin="round" cx="38.6744646" cy="32.6005579" rx="1.80283382" ry="1.80413176"></ellipse>
                    <ellipse id="Border" stroke="#001F4F" stroke-linecap="round" stroke-linejoin="round" cx="26.5412561" cy="30.7964261" rx="1.80283382" ry="1.80413176"></ellipse>
                </g>
            </g>
        </g>
    </g>
</svg>