<?xml version="1.0" encoding="UTF-8"?>
<svg width="24px" height="24px" viewBox="0 0 24 24" version="1.1" xmlns="http://www.w3.org/2000/svg" xmlns:xlink="http://www.w3.org/1999/xlink">
    <title>093EA4E7-A1C1-48FE-A8FD-1F4F4B9F4B31</title>
    <g id="Desktop" stroke="none" stroke-width="1" fill="none" fill-rule="evenodd">
        <g id="16---Select-account---Cancel-transaction" transform="translate(-236.000000, -405.000000)">
            <g id="Modal" transform="translate(212.000000, 389.000000)">
                <g id="3-Icons/2-Notifications-/4-Danger-/3-Two-Tone" transform="translate(24.000000, 16.000000)">
                    <rect id="BG" fill-opacity="0.01" fill="#D8D8D8" x="0" y="0" width="24" height="24"></rect>
                    <path d="M9.89799896,5.72717 L18.201399,20.1091 L3.32659896,20.1091 C2.55679896,20.1091 2.07569896,19.2758 2.46059896,18.6091 L9.89799896,5.72717 Z" id="Path" fill="#FF9125" fill-rule="nonzero"></path>
                    <path d="M13.939299,4.125 L21.696599,17.625 C22.558599,19.125 21.481199,21 19.757299,21 L4.24269896,21 C2.51879896,21 1.44139896,19.125 2.30339896,17.625 L10.060699,4.125 C10.922599,2.625 13.077399,2.625 13.939299,4.125 Z M13.072299,4.62322 C12.618674,3.833808 11.5223787,3.7943374 11.0044867,4.5048082 L10.927699,4.62322 L3.17039896,18.1232 C2.70849462,18.9271565 3.24505756,19.9102571 4.12118428,19.9942243 L4.24269896,20 L19.757299,20 C20.6629337,20 21.2589549,19.0518541 20.886459,18.2338396 L20.829599,18.1232 L13.072299,4.62322 Z M11.999999,17 C12.414199,17 12.749999,17.3358 12.749999,17.75 C12.749999,18.1642 12.414199,18.5 11.999999,18.5 C11.585799,18.5 11.249999,18.1642 11.249999,17.75 C11.249999,17.3358 11.585799,17 11.999999,17 Z M11.999999,7 C12.2454212,7 12.449599,7.17687704 12.4919419,7.41012499 L12.499999,7.5 L12.499999,14.5 C12.499999,14.7761 12.276099,15 11.999999,15 C11.7545767,15 11.550399,14.8230914 11.508056,14.5898645 L11.499999,14.5 L11.499999,7.5 C11.499999,7.22386 11.723899,7 11.999999,7 Z" id="Shape" fill="#000000" fill-rule="nonzero"></path>
                </g>
            </g>
        </g>
    </g>
</svg>