<?xml version="1.0" encoding="UTF-8"?>
<svg width="24px" height="24px" viewBox="0 0 24 24" version="1.1" xmlns="http://www.w3.org/2000/svg" xmlns:xlink="http://www.w3.org/1999/xlink">
    <title>E4EA163A-D51A-4F86-9930-155950A13802</title>
    <g id="Desktop" stroke="none" stroke-width="1" fill="none" fill-rule="evenodd">
        <g id="05---Login---Incorrect-User-ID-and-password" transform="translate(-872.000000, -251.000000)">
            <g id="Alerts-/2-Multi-Line/4-Danger-" transform="translate(600.000000, 243.000000)">
                <g id="3-Icons/2-Notifications-/4-Danger-/3-Two-Tone-Copy" transform="translate(272.000000, 8.000000)">
                    <rect id="BG" fill-opacity="0.01" fill="#D8D8D8" x="0" y="0" width="24" height="24"></rect>
                    <path d="M16.715725,17.4699613 C16.923925,17.6781613 17.261625,17.6781613 17.469925,17.4699613 C17.678225,17.2616613 17.678225,16.9239613 17.469925,16.7156613 L12.567325,11.8130613 L17.469925,6.91045125 C17.678225,6.70217125 17.678225,6.36449125 17.469925,6.15621125 C17.261625,5.94793125 16.923925,5.94793125 16.715725,6.15621125 L11.813125,11.0588113 L6.910425,6.15620125 C6.702225,5.94793125 6.364525,5.94793125 6.156225,6.15621125 C5.947925,6.36448125 5.947925,6.70217125 6.156225,6.91045125 L11.058825,11.8130613 L6.156225,16.7156613 C5.947925,16.9239613 5.947925,17.2616613 6.156225,17.4699613 C6.364525,17.6781613 6.702225,17.6781613 6.910425,17.4699613 L11.813125,12.5673113 L16.715725,17.4699613 Z" id="Path" fill="#000000" fill-rule="nonzero"></path>
                </g>
            </g>
        </g>
    </g>
</svg>