<?xml version="1.0" encoding="UTF-8"?>
<svg width="24px" height="24px" viewBox="0 0 24 24" version="1.1" xmlns="http://www.w3.org/2000/svg" xmlns:xlink="http://www.w3.org/1999/xlink">
    <title>5DF1E1DB-9193-41D3-9087-C60F02AC2E69</title>
    <g id="Desktop" stroke="none" stroke-width="1" fill="none" fill-rule="evenodd">
        <g id="09---Give-consent" transform="translate(-296.000000, -547.000000)">
            <g id="3-Icons-/-00-Placeholder" transform="translate(296.000000, 547.000000)">
                <rect id="BG" fill-opacity="0.01" fill="#D8D8D8" x="0" y="0" width="24" height="24"></rect>
                <circle id="Tone" fill="#299BCF" fill-rule="nonzero" cx="11" cy="13" r="8"></circle>
                <path d="M12,2 C17.5228,2 22,6.47715 22,12 C22,17.5228 17.5228,22 12,22 C6.4772,22 2,17.5228 2,12 C2,6.47715 6.4772,2 12,2 Z M12,3 C7.0294,3 3,7.02944 3,12 C3,16.9706 7.0294,21 12,21 C16.9706,21 21,16.9706 21,12 C21,7.02944 16.9706,3 12,3 Z M12,10 C12.2761,10 12.5,10.22386 12.5,10.5 L12.5,16.5 C12.5,16.7761 12.2761,17 12,17 C11.7239,17 11.5,16.7761 11.5,16.5 L11.5,10.5 C11.5,10.22386 11.7239,10 12,10 Z M12,7 C12.4142,7 12.75,7.33579 12.75,7.75 C12.75,8.16421 12.4142,8.5 12,8.5 C11.5858,8.5 11.25,8.16421 11.25,7.75 C11.25,7.33579 11.5858,7 12,7 Z" id="Shape" fill="#000000" fill-rule="nonzero"></path>
            </g>
        </g>
    </g>
</svg>